<svg width="318" height="154" viewBox="0 0 318 154" fill="none" xmlns="http://www.w3.org/2000/svg">
<rect width="318" height="154" fill="white"/>
<path d="M26.482 112.181V124.088C26.482 125.762 26.887 127.004 27.697 127.814C28.525 128.624 29.668 129.029 31.126 129.029C32.566 129.029 33.691 128.624 34.501 127.814C35.329 127.004 35.743 125.762 35.743 124.088V112.181H38.2V124.061C38.2 125.627 37.885 126.95 37.255 128.03C36.625 129.092 35.77 129.884 34.69 130.406C33.628 130.928 32.431 131.189 31.099 131.189C29.767 131.189 28.561 130.928 27.481 130.406C26.419 129.884 25.573 129.092 24.943 128.03C24.331 126.95 24.025 125.627 24.025 124.061V112.181H26.482ZM45.0557 118.931C45.5417 118.085 46.2617 117.383 47.2157 116.825C48.1877 116.249 49.3127 115.961 50.5907 115.961C51.9047 115.961 53.0927 116.276 54.1547 116.906C55.2347 117.536 56.0807 118.427 56.6927 119.579C57.3047 120.713 57.6107 122.036 57.6107 123.548C57.6107 125.042 57.3047 126.374 56.6927 127.544C56.0807 128.714 55.2347 129.623 54.1547 130.271C53.0927 130.919 51.9047 131.243 50.5907 131.243C49.3307 131.243 48.2147 130.964 47.2427 130.406C46.2887 129.83 45.5597 129.119 45.0557 128.273V138.02H42.5987V116.204H45.0557V118.931ZM55.0997 123.548C55.0997 122.432 54.8747 121.46 54.4247 120.632C53.9747 119.804 53.3627 119.174 52.5887 118.742C51.8327 118.31 50.9957 118.094 50.0777 118.094C49.1777 118.094 48.3407 118.319 47.5667 118.769C46.8107 119.201 46.1987 119.84 45.7307 120.686C45.2807 121.514 45.0557 122.477 45.0557 123.575C45.0557 124.691 45.2807 125.672 45.7307 126.518C46.1987 127.346 46.8107 127.985 47.5667 128.435C48.3407 128.867 49.1777 129.083 50.0777 129.083C50.9957 129.083 51.8327 128.867 52.5887 128.435C53.3627 127.985 53.9747 127.346 54.4247 126.518C54.8747 125.672 55.0997 124.682 55.0997 123.548ZM63.6018 111.02V131H61.1448V111.02H63.6018ZM74.5424 131.243C73.1564 131.243 71.8964 130.928 70.7624 130.298C69.6464 129.668 68.7644 128.777 68.1164 127.625C67.4864 126.455 67.1714 125.105 67.1714 123.575C67.1714 122.063 67.4954 120.731 68.1434 119.579C68.8094 118.409 69.7094 117.518 70.8434 116.906C71.9774 116.276 73.2464 115.961 74.6504 115.961C76.0544 115.961 77.3234 116.276 78.4574 116.906C79.5914 117.518 80.4824 118.4 81.1304 119.552C81.7964 120.704 82.1294 122.045 82.1294 123.575C82.1294 125.105 81.7874 126.455 81.1034 127.625C80.4374 128.777 79.5284 129.668 78.3764 130.298C77.2244 130.928 75.9464 131.243 74.5424 131.243ZM74.5424 129.083C75.4244 129.083 76.2524 128.876 77.0264 128.462C77.8004 128.048 78.4214 127.427 78.8894 126.599C79.3754 125.771 79.6184 124.763 79.6184 123.575C79.6184 122.387 79.3844 121.379 78.9164 120.551C78.4484 119.723 77.8364 119.111 77.0804 118.715C76.3244 118.301 75.5054 118.094 74.6234 118.094C73.7234 118.094 72.8954 118.301 72.1394 118.715C71.4014 119.111 70.8074 119.723 70.3574 120.551C69.9074 121.379 69.6824 122.387 69.6824 123.575C69.6824 124.781 69.8984 125.798 70.3304 126.626C70.7804 127.454 71.3744 128.075 72.1124 128.489C72.8504 128.885 73.6604 129.083 74.5424 129.083ZM84.7419 123.548C84.7419 122.036 85.0479 120.713 85.6599 119.579C86.2719 118.427 87.1089 117.536 88.1709 116.906C89.2509 116.276 90.4479 115.961 91.7619 115.961C93.0579 115.961 94.1829 116.24 95.1369 116.798C96.0909 117.356 96.8019 118.058 97.2699 118.904V116.204H99.7539V131H97.2699V128.246C96.7839 129.11 96.0549 129.83 95.0829 130.406C94.1289 130.964 93.0129 131.243 91.7349 131.243C90.4209 131.243 89.2329 130.919 88.1709 130.271C87.1089 129.623 86.2719 128.714 85.6599 127.544C85.0479 126.374 84.7419 125.042 84.7419 123.548ZM97.2699 123.575C97.2699 122.459 97.0449 121.487 96.5949 120.659C96.1449 119.831 95.5329 119.201 94.7589 118.769C94.0029 118.319 93.1659 118.094 92.2479 118.094C91.3299 118.094 90.4929 118.31 89.7369 118.742C88.9809 119.174 88.3779 119.804 87.9279 120.632C87.4779 121.46 87.2529 122.432 87.2529 123.548C87.2529 124.682 87.4779 125.672 87.9279 126.518C88.3779 127.346 88.9809 127.985 89.7369 128.435C90.4929 128.867 91.3299 129.083 92.2479 129.083C93.1659 129.083 94.0029 128.867 94.7589 128.435C95.5329 127.985 96.1449 127.346 96.5949 126.518C97.0449 125.672 97.2699 124.691 97.2699 123.575ZM103.288 123.548C103.288 122.036 103.594 120.713 104.206 119.579C104.818 118.427 105.655 117.536 106.717 116.906C107.797 116.276 109.003 115.961 110.335 115.961C111.487 115.961 112.558 116.231 113.548 116.771C114.538 117.293 115.294 117.986 115.816 118.85V111.02H118.3V131H115.816V128.219C115.33 129.101 114.61 129.83 113.656 130.406C112.702 130.964 111.586 131.243 110.308 131.243C108.994 131.243 107.797 130.919 106.717 130.271C105.655 129.623 104.818 128.714 104.206 127.544C103.594 126.374 103.288 125.042 103.288 123.548ZM115.816 123.575C115.816 122.459 115.591 121.487 115.141 120.659C114.691 119.831 114.079 119.201 113.305 118.769C112.549 118.319 111.712 118.094 110.794 118.094C109.876 118.094 109.039 118.31 108.283 118.742C107.527 119.174 106.924 119.804 106.474 120.632C106.024 121.46 105.799 122.432 105.799 123.548C105.799 124.682 106.024 125.672 106.474 126.518C106.924 127.346 107.527 127.985 108.283 128.435C109.039 128.867 109.876 129.083 110.794 129.083C111.712 129.083 112.549 128.867 113.305 128.435C114.079 127.985 114.691 127.346 115.141 126.518C115.591 125.672 115.816 124.691 115.816 123.575ZM141.374 126.815H133.166L131.654 131H129.062L135.866 112.289H138.701L145.478 131H142.886L141.374 126.815ZM140.672 124.817L137.27 115.313L133.868 124.817H140.672ZM147.826 123.548C147.826 122.036 148.132 120.713 148.744 119.579C149.356 118.427 150.193 117.536 151.255 116.906C152.335 116.276 153.541 115.961 154.873 115.961C156.025 115.961 157.096 116.231 158.086 116.771C159.076 117.293 159.832 117.986 160.354 118.85V111.02H162.838V131H160.354V128.219C159.868 129.101 159.148 129.83 158.194 130.406C157.24 130.964 156.124 131.243 154.846 131.243C153.532 131.243 152.335 130.919 151.255 130.271C150.193 129.623 149.356 128.714 148.744 127.544C148.132 126.374 147.826 125.042 147.826 123.548ZM160.354 123.575C160.354 122.459 160.129 121.487 159.679 120.659C159.229 119.831 158.617 119.201 157.843 118.769C157.087 118.319 156.25 118.094 155.332 118.094C154.414 118.094 153.577 118.31 152.821 118.742C152.065 119.174 151.462 119.804 151.012 120.632C150.562 121.46 150.337 122.432 150.337 123.548C150.337 124.682 150.562 125.672 151.012 126.518C151.462 127.346 152.065 127.985 152.821 128.435C153.577 128.867 154.414 129.083 155.332 129.083C156.25 129.083 157.087 128.867 157.843 128.435C158.617 127.985 159.229 127.346 159.679 126.518C160.129 125.672 160.354 124.691 160.354 123.575ZM174.634 115.934C175.75 115.934 176.758 116.177 177.658 116.663C178.558 117.131 179.26 117.842 179.764 118.796C180.286 119.75 180.547 120.911 180.547 122.279V131H178.117V122.63C178.117 121.154 177.748 120.029 177.01 119.255C176.272 118.463 175.264 118.067 173.986 118.067C172.69 118.067 171.655 118.472 170.881 119.282C170.125 120.092 169.747 121.271 169.747 122.819V131H167.29V111.02H169.747V118.31C170.233 117.554 170.899 116.969 171.745 116.555C172.609 116.141 173.572 115.934 174.634 115.934ZM183.942 123.548C183.942 122.036 184.248 120.713 184.86 119.579C185.472 118.427 186.309 117.536 187.371 116.906C188.451 116.276 189.648 115.961 190.962 115.961C192.258 115.961 193.383 116.24 194.337 116.798C195.291 117.356 196.002 118.058 196.47 118.904V116.204H198.954V131H196.47V128.246C195.984 129.11 195.255 129.83 194.283 130.406C193.329 130.964 192.213 131.243 190.935 131.243C189.621 131.243 188.433 130.919 187.371 130.271C186.309 129.623 185.472 128.714 184.86 127.544C184.248 126.374 183.942 125.042 183.942 123.548ZM196.47 123.575C196.47 122.459 196.245 121.487 195.795 120.659C195.345 119.831 194.733 119.201 193.959 118.769C193.203 118.319 192.366 118.094 191.448 118.094C190.53 118.094 189.693 118.31 188.937 118.742C188.181 119.174 187.578 119.804 187.128 120.632C186.678 121.46 186.453 122.432 186.453 123.548C186.453 124.682 186.678 125.672 187.128 126.518C187.578 127.346 188.181 127.985 188.937 128.435C189.693 128.867 190.53 129.083 191.448 129.083C192.366 129.083 193.203 128.867 193.959 128.435C194.733 127.985 195.345 127.346 195.795 126.518C196.245 125.672 196.47 124.691 196.47 123.575ZM205.863 118.607C206.295 117.761 206.907 117.104 207.699 116.636C208.509 116.168 209.49 115.934 210.642 115.934V118.472H209.994C207.24 118.472 205.863 119.966 205.863 122.954V131H203.406V116.204H205.863V118.607ZM230.7 121.307C231.384 121.415 232.005 121.694 232.563 122.144C233.139 122.594 233.589 123.152 233.913 123.818C234.255 124.484 234.426 125.195 234.426 125.951C234.426 126.905 234.183 127.769 233.697 128.543C233.211 129.299 232.5 129.902 231.564 130.352C230.646 130.784 229.557 131 228.297 131H221.277V112.181H228.027C229.305 112.181 230.394 112.397 231.294 112.829C232.194 113.243 232.869 113.81 233.319 114.53C233.769 115.25 233.994 116.06 233.994 116.96C233.994 118.076 233.688 119.003 233.076 119.741C232.482 120.461 231.69 120.983 230.7 121.307ZM223.734 120.308H227.865C229.017 120.308 229.908 120.038 230.538 119.498C231.168 118.958 231.483 118.211 231.483 117.257C231.483 116.303 231.168 115.556 230.538 115.016C229.908 114.476 228.999 114.206 227.811 114.206H223.734V120.308ZM228.081 128.975C229.305 128.975 230.259 128.687 230.943 128.111C231.627 127.535 231.969 126.734 231.969 125.708C231.969 124.664 231.609 123.845 230.889 123.251C230.169 122.639 229.206 122.333 228 122.333H223.734V128.975H228.081ZM237.217 123.548C237.217 122.036 237.523 120.713 238.135 119.579C238.747 118.427 239.584 117.536 240.646 116.906C241.726 116.276 242.923 115.961 244.237 115.961C245.533 115.961 246.658 116.24 247.612 116.798C248.566 117.356 249.277 118.058 249.745 118.904V116.204H252.229V131H249.745V128.246C249.259 129.11 248.53 129.83 247.558 130.406C246.604 130.964 245.488 131.243 244.21 131.243C242.896 131.243 241.708 130.919 240.646 130.271C239.584 129.623 238.747 128.714 238.135 127.544C237.523 126.374 237.217 125.042 237.217 123.548ZM249.745 123.575C249.745 122.459 249.52 121.487 249.07 120.659C248.62 119.831 248.008 119.201 247.234 118.769C246.478 118.319 245.641 118.094 244.723 118.094C243.805 118.094 242.968 118.31 242.212 118.742C241.456 119.174 240.853 119.804 240.403 120.632C239.953 121.46 239.728 122.432 239.728 123.548C239.728 124.682 239.953 125.672 240.403 126.518C240.853 127.346 241.456 127.985 242.212 128.435C242.968 128.867 243.805 129.083 244.723 129.083C245.641 129.083 246.478 128.867 247.234 128.435C248.008 127.985 248.62 127.346 249.07 126.518C249.52 125.672 249.745 124.691 249.745 123.575ZM255.764 123.575C255.764 122.045 256.07 120.713 256.682 119.579C257.294 118.427 258.14 117.536 259.22 116.906C260.318 116.276 261.569 115.961 262.973 115.961C264.791 115.961 266.285 116.402 267.455 117.284C268.643 118.166 269.426 119.39 269.804 120.956H267.158C266.906 120.056 266.411 119.345 265.673 118.823C264.953 118.301 264.053 118.04 262.973 118.04C261.569 118.04 260.435 118.526 259.571 119.498C258.707 120.452 258.275 121.811 258.275 123.575C258.275 125.357 258.707 126.734 259.571 127.706C260.435 128.678 261.569 129.164 262.973 129.164C264.053 129.164 264.953 128.912 265.673 128.408C266.393 127.904 266.888 127.184 267.158 126.248H269.804C269.408 127.76 268.616 128.975 267.428 129.893C266.24 130.793 264.755 131.243 262.973 131.243C261.569 131.243 260.318 130.928 259.22 130.298C258.14 129.668 257.294 128.777 256.682 127.625C256.07 126.473 255.764 125.123 255.764 123.575ZM281.644 131L275.839 124.466V131H273.382V111.02H275.839V122.765L281.536 116.204H284.965L277.999 123.575L284.992 131H281.644Z" fill="#797979"/>
<path d="M175.174 27.368V24.8138C175.168 22.7833 174.417 20.8377 173.083 19.402C171.749 17.9662 169.941 17.157 168.055 17.1511H120.592C118.706 17.157 116.898 17.9662 115.564 19.402C114.23 20.8377 113.479 22.7833 113.473 24.8138V65.6814C113.479 67.7118 114.23 69.6574 115.564 71.0932C116.898 72.5289 118.706 73.3381 120.592 73.344H122.966" stroke="#919191" stroke-width="1.5" stroke-linejoin="round"/>
<path d="M177.845 29.9226H132.16C128.392 29.9226 125.338 33.2096 125.338 37.2644V76.2195C125.338 80.2743 128.392 83.5613 132.16 83.5613H177.845C181.612 83.5613 184.666 80.2743 184.666 76.2195V37.2644C184.666 33.2096 181.612 29.9226 177.845 29.9226Z" stroke="#919191" stroke-width="1.5" stroke-linejoin="round"/>
<path d="M166.411 49.4287C168.932 49.4287 170.975 47.2452 170.975 44.5518C170.975 41.8583 168.932 39.6748 166.411 39.6748C163.891 39.6748 161.847 41.8583 161.847 44.5518C161.847 47.2452 163.891 49.4287 166.411 49.4287Z" stroke="#919191" stroke-width="1.5" stroke-miterlimit="10"/>
<path d="M150.438 83.5609L168.028 64.7666C168.837 63.9074 169.913 63.4015 171.049 63.3463C172.185 63.2912 173.299 63.6908 174.177 64.4681L184.666 73.8085M161.847 68.9012L148.921 55.11C148.095 54.2313 146.99 53.7227 145.828 53.6868C144.667 53.651 143.537 54.0906 142.665 54.9169L125.338 71.3709L161.847 68.9012Z" stroke="#919191" stroke-width="1.5" stroke-linecap="round" stroke-linejoin="round"/>
</svg>
