<svg width="93" height="30" viewBox="0 0 93 30" fill="none" xmlns="http://www.w3.org/2000/svg">
<path d="M24.3516 26.1289C23.0495 27.2487 21.5911 28.1081 19.9766 28.707C18.362 29.306 16.6888 29.6055 14.957 29.6055C13.6289 29.6055 12.3464 29.4297 11.1094 29.0781C9.88542 28.7396 8.73307 28.2578 7.65234 27.6328C6.58464 26.9948 5.60807 26.2331 4.72266 25.3477C3.83724 24.4622 3.07552 23.4857 2.4375 22.418C1.8125 21.3372 1.32422 20.1849 0.972656 18.9609C0.634115 17.724 0.464844 16.4414 0.464844 15.1133C0.464844 13.7852 0.634115 12.5026 0.972656 11.2656C1.32422 10.0286 1.8125 8.8763 2.4375 7.80859C3.07552 6.72786 3.83724 5.74479 4.72266 4.85938C5.60807 3.97396 6.58464 3.21875 7.65234 2.59375C8.73307 1.95573 9.88542 1.46745 11.1094 1.12891C12.3464 0.777344 13.6289 0.601562 14.957 0.601562C16.6888 0.601562 18.362 0.901042 19.9766 1.5C21.5911 2.08594 23.0495 2.94531 24.3516 4.07812L21.3828 8.96094C20.5625 8.07552 19.5924 7.39844 18.4727 6.92969C17.3529 6.44792 16.181 6.20703 14.957 6.20703C13.7201 6.20703 12.5612 6.44141 11.4805 6.91016C10.3997 7.37891 9.45573 8.01693 8.64844 8.82422C7.84115 9.61849 7.20312 10.5625 6.73438 11.6562C6.26562 12.737 6.03125 13.8893 6.03125 15.1133C6.03125 16.3372 6.26562 17.4896 6.73438 18.5703C7.20312 19.638 7.84115 20.5755 8.64844 21.3828C9.45573 22.1901 10.3997 22.8281 11.4805 23.2969C12.5612 23.7656 13.7201 24 14.957 24C16.181 24 17.3529 23.7656 18.4727 23.2969C19.5924 22.8151 20.5625 22.1315 21.3828 21.2461L24.3516 26.1289ZM33.2188 29H27.6133V0.992188H33.2188V29ZM60.8359 20.6016C60.8359 21.7604 60.6146 22.8477 60.1719 23.8633C59.7292 24.8789 59.1237 25.7708 58.3555 26.5391C57.6003 27.2943 56.7148 27.8932 55.6992 28.3359C54.6836 28.7786 53.5964 29 52.4375 29H38.4336V0.992188H52.4375C53.5964 0.992188 54.6836 1.21354 55.6992 1.65625C56.7148 2.09896 57.6003 2.70443 58.3555 3.47266C59.1237 4.22786 59.7292 5.11328 60.1719 6.12891C60.6146 7.14453 60.8359 8.23177 60.8359 9.39062C60.8359 9.91146 60.7643 10.4453 60.6211 10.9922C60.4779 11.5391 60.276 12.0664 60.0156 12.5742C59.7552 13.082 59.4427 13.5443 59.0781 13.9609C58.7135 14.3776 58.3099 14.7227 57.8672 14.9961C58.3229 15.2435 58.7331 15.582 59.0977 16.0117C59.4622 16.4284 59.7747 16.8906 60.0352 17.3984C60.2956 17.9062 60.4909 18.4401 60.6211 19C60.7643 19.5469 60.8359 20.0807 60.8359 20.6016ZM44.0391 23.3945H52.4375C52.8281 23.3945 53.1927 23.3229 53.5312 23.1797C53.8698 23.0365 54.1628 22.8411 54.4102 22.5938C54.6706 22.3333 54.8724 22.0339 55.0156 21.6953C55.1589 21.3568 55.2305 20.9922 55.2305 20.6016C55.2305 20.2109 55.1589 19.8464 55.0156 19.5078C54.8724 19.1693 54.6706 18.8763 54.4102 18.6289C54.1628 18.3685 53.8698 18.1667 53.5312 18.0234C53.1927 17.8802 52.8281 17.8086 52.4375 17.8086H44.0391V23.3945ZM44.0391 12.2031H52.4375C52.8281 12.2031 53.1927 12.1315 53.5312 11.9883C53.8698 11.8451 54.1628 11.6497 54.4102 11.4023C54.6706 11.1419 54.8724 10.8424 55.0156 10.5039C55.1589 10.1523 55.2305 9.78125 55.2305 9.39062C55.2305 9 55.1589 8.63542 55.0156 8.29688C54.8724 7.95833 54.6706 7.66536 54.4102 7.41797C54.1628 7.15755 53.8698 6.95573 53.5312 6.8125C53.1927 6.66927 52.8281 6.59766 52.4375 6.59766H44.0391V12.2031ZM92.5156 15.1133C92.5156 16.4414 92.3398 17.724 91.9883 18.9609C91.6497 20.1849 91.168 21.3372 90.543 22.418C89.918 23.4857 89.1628 24.4622 88.2773 25.3477C87.3919 26.2331 86.4154 26.9948 85.3477 27.6328C84.2799 28.2578 83.1276 28.7396 81.8906 29.0781C80.6536 29.4297 79.3711 29.6055 78.043 29.6055C76.7148 29.6055 75.4323 29.4297 74.1953 29.0781C72.9714 28.7396 71.819 28.2578 70.7383 27.6328C69.6706 26.9948 68.694 26.2331 67.8086 25.3477C66.9232 24.4622 66.1615 23.4857 65.5234 22.418C64.8984 21.3372 64.4102 20.1849 64.0586 18.9609C63.7201 17.724 63.5508 16.4414 63.5508 15.1133C63.5508 13.7852 63.7201 12.5026 64.0586 11.2656C64.4102 10.0286 64.8984 8.8763 65.5234 7.80859C66.1615 6.74089 66.9232 5.76432 67.8086 4.87891C68.694 3.99349 69.6706 3.23828 70.7383 2.61328C71.819 1.98828 72.9714 1.50651 74.1953 1.16797C75.4323 0.816406 76.7148 0.640625 78.043 0.640625C79.3711 0.640625 80.6536 0.816406 81.8906 1.16797C83.1276 1.50651 84.2799 1.98828 85.3477 2.61328C86.4154 3.23828 87.3919 3.99349 88.2773 4.87891C89.1628 5.76432 89.918 6.74089 90.543 7.80859C91.168 8.8763 91.6497 10.0286 91.9883 11.2656C92.3398 12.5026 92.5156 13.7852 92.5156 15.1133ZM86.9492 15.1133C86.9492 13.8893 86.7148 12.737 86.2461 11.6562C85.7773 10.5625 85.1393 9.61849 84.332 8.82422C83.5378 8.01693 82.5938 7.37891 81.5 6.91016C80.4193 6.44141 79.2669 6.20703 78.043 6.20703C76.806 6.20703 75.6471 6.44141 74.5664 6.91016C73.4857 7.37891 72.5417 8.01693 71.7344 8.82422C70.9271 9.61849 70.2891 10.5625 69.8203 11.6562C69.3516 12.737 69.1172 13.8893 69.1172 15.1133C69.1172 16.3372 69.3516 17.4896 69.8203 18.5703C70.2891 19.638 70.9271 20.5755 71.7344 21.3828C72.5417 22.1901 73.4857 22.8281 74.5664 23.2969C75.6471 23.7656 76.806 24 78.043 24C79.2669 24 80.4193 23.7656 81.5 23.2969C82.5938 22.8281 83.5378 22.1901 84.332 21.3828C85.1393 20.5755 85.7773 19.638 86.2461 18.5703C86.7148 17.4896 86.9492 16.3372 86.9492 15.1133Z" fill="black"/>
</svg>
