<svg width="167" height="8" viewBox="0 0 167 8" fill="none" xmlns="http://www.w3.org/2000/svg">
<path d="M3.52 7.128C2.944 7.128 2.416 6.992 1.936 6.72C1.472 6.432 1.096 6.056 0.808 5.592C0.536 5.112 0.4 4.584 0.4 4.008C0.4 3.128 0.704 2.384 1.312 1.776C1.92 1.168 2.656 0.864 3.52 0.864C4.416 0.864 5.168 1.168 5.776 1.776C6.384 2.384 6.688 3.128 6.688 4.008C6.688 4.888 6.384 5.632 5.776 6.24C5.168 6.832 4.416 7.128 3.52 7.128ZM14.6059 7.128C14.0299 7.128 13.5019 6.992 13.0219 6.72C12.5579 6.432 12.1819 6.056 11.8939 5.592C11.6219 5.112 11.4859 4.584 11.4859 4.008C11.4859 3.128 11.7899 2.384 12.3979 1.776C13.0059 1.168 13.7419 0.864 14.6059 0.864C15.5019 0.864 16.2539 1.168 16.8619 1.776C17.4699 2.384 17.7739 3.128 17.7739 4.008C17.7739 4.888 17.4699 5.632 16.8619 6.24C16.2539 6.832 15.5019 7.128 14.6059 7.128ZM25.6919 7.128C25.1159 7.128 24.5879 6.992 24.1079 6.72C23.6439 6.432 23.2679 6.056 22.9799 5.592C22.7079 5.112 22.5719 4.584 22.5719 4.008C22.5719 3.128 22.8759 2.384 23.4839 1.776C24.0919 1.168 24.8279 0.864 25.6919 0.864C26.5879 0.864 27.3399 1.168 27.9479 1.776C28.5559 2.384 28.8599 3.128 28.8599 4.008C28.8599 4.888 28.5559 5.632 27.9479 6.24C27.3399 6.832 26.5879 7.128 25.6919 7.128ZM36.7778 7.128C36.2018 7.128 35.6738 6.992 35.1938 6.72C34.7298 6.432 34.3538 6.056 34.0658 5.592C33.7938 5.112 33.6578 4.584 33.6578 4.008C33.6578 3.128 33.9618 2.384 34.5698 1.776C35.1778 1.168 35.9138 0.864 36.7778 0.864C37.6738 0.864 38.4258 1.168 39.0338 1.776C39.6418 2.384 39.9458 3.128 39.9458 4.008C39.9458 4.888 39.6418 5.632 39.0338 6.24C38.4258 6.832 37.6738 7.128 36.7778 7.128ZM66.5669 7.128C65.9909 7.128 65.4629 6.992 64.9829 6.72C64.5189 6.432 64.1429 6.056 63.8549 5.592C63.5829 5.112 63.4469 4.584 63.4469 4.008C63.4469 3.128 63.7509 2.384 64.3589 1.776C64.9669 1.168 65.7029 0.864 66.5669 0.864C67.4629 0.864 68.2149 1.168 68.8229 1.776C69.4309 2.384 69.7349 3.128 69.7349 4.008C69.7349 4.888 69.4309 5.632 68.8229 6.24C68.2149 6.832 67.4629 7.128 66.5669 7.128ZM77.6528 7.128C77.0768 7.128 76.5488 6.992 76.0688 6.72C75.6048 6.432 75.2288 6.056 74.9408 5.592C74.6688 5.112 74.5328 4.584 74.5328 4.008C74.5328 3.128 74.8368 2.384 75.4448 1.776C76.0528 1.168 76.7888 0.864 77.6528 0.864C78.5488 0.864 79.3008 1.168 79.9088 1.776C80.5168 2.384 80.8208 3.128 80.8208 4.008C80.8208 4.888 80.5168 5.632 79.9088 6.24C79.3008 6.832 78.5488 7.128 77.6528 7.128ZM88.7388 7.128C88.1628 7.128 87.6348 6.992 87.1548 6.72C86.6908 6.432 86.3148 6.056 86.0268 5.592C85.7548 5.112 85.6188 4.584 85.6188 4.008C85.6188 3.128 85.9228 2.384 86.5308 1.776C87.1388 1.168 87.8748 0.864 88.7388 0.864C89.6348 0.864 90.3868 1.168 90.9948 1.776C91.6028 2.384 91.9068 3.128 91.9068 4.008C91.9068 4.888 91.6028 5.632 90.9948 6.24C90.3868 6.832 89.6348 7.128 88.7388 7.128ZM99.8247 7.128C99.2487 7.128 98.7207 6.992 98.2407 6.72C97.7767 6.432 97.4007 6.056 97.1127 5.592C96.8407 5.112 96.7047 4.584 96.7047 4.008C96.7047 3.128 97.0087 2.384 97.6167 1.776C98.2247 1.168 98.9607 0.864 99.8247 0.864C100.721 0.864 101.473 1.168 102.081 1.776C102.689 2.384 102.993 3.128 102.993 4.008C102.993 4.888 102.689 5.632 102.081 6.24C101.473 6.832 100.721 7.128 99.8247 7.128ZM129.614 7.128C129.038 7.128 128.51 6.992 128.03 6.72C127.566 6.432 127.19 6.056 126.902 5.592C126.63 5.112 126.494 4.584 126.494 4.008C126.494 3.128 126.798 2.384 127.406 1.776C128.014 1.168 128.75 0.864 129.614 0.864C130.51 0.864 131.262 1.168 131.87 1.776C132.478 2.384 132.782 3.128 132.782 4.008C132.782 4.888 132.478 5.632 131.87 6.24C131.262 6.832 130.51 7.128 129.614 7.128ZM140.7 7.128C140.124 7.128 139.596 6.992 139.116 6.72C138.652 6.432 138.276 6.056 137.988 5.592C137.716 5.112 137.58 4.584 137.58 4.008C137.58 3.128 137.884 2.384 138.492 1.776C139.1 1.168 139.836 0.864 140.7 0.864C141.596 0.864 142.348 1.168 142.956 1.776C143.564 2.384 143.868 3.128 143.868 4.008C143.868 4.888 143.564 5.632 142.956 6.24C142.348 6.832 141.596 7.128 140.7 7.128ZM151.786 7.128C151.21 7.128 150.682 6.992 150.202 6.72C149.738 6.432 149.362 6.056 149.074 5.592C148.802 5.112 148.666 4.584 148.666 4.008C148.666 3.128 148.97 2.384 149.578 1.776C150.186 1.168 150.922 0.864 151.786 0.864C152.682 0.864 153.434 1.168 154.042 1.776C154.65 2.384 154.954 3.128 154.954 4.008C154.954 4.888 154.65 5.632 154.042 6.24C153.434 6.832 152.682 7.128 151.786 7.128ZM162.872 7.128C162.296 7.128 161.768 6.992 161.288 6.72C160.824 6.432 160.448 6.056 160.16 5.592C159.888 5.112 159.752 4.584 159.752 4.008C159.752 3.128 160.056 2.384 160.664 1.776C161.272 1.168 162.008 0.864 162.872 0.864C163.768 0.864 164.52 1.168 165.128 1.776C165.736 2.384 166.04 3.128 166.04 4.008C166.04 4.888 165.736 5.632 165.128 6.24C164.52 6.832 163.768 7.128 162.872 7.128Z" fill="#393939"/>
</svg>
