<svg width="318" height="154" viewBox="0 0 318 154" fill="none" xmlns="http://www.w3.org/2000/svg">
<rect width="318" height="154" fill="white"/>
<path d="M40.482 111.181V123.088C40.482 124.762 40.887 126.004 41.697 126.814C42.525 127.624 43.668 128.029 45.126 128.029C46.566 128.029 47.691 127.624 48.501 126.814C49.329 126.004 49.743 124.762 49.743 123.088V111.181H52.2V123.061C52.2 124.627 51.885 125.95 51.255 127.03C50.625 128.092 49.77 128.884 48.69 129.406C47.628 129.928 46.431 130.189 45.099 130.189C43.767 130.189 42.561 129.928 41.481 129.406C40.419 128.884 39.573 128.092 38.943 127.03C38.331 125.95 38.025 124.627 38.025 123.061V111.181H40.482ZM59.0557 117.931C59.5417 117.085 60.2617 116.383 61.2157 115.825C62.1877 115.249 63.3127 114.961 64.5907 114.961C65.9047 114.961 67.0927 115.276 68.1547 115.906C69.2347 116.536 70.0807 117.427 70.6927 118.579C71.3047 119.713 71.6107 121.036 71.6107 122.548C71.6107 124.042 71.3047 125.374 70.6927 126.544C70.0807 127.714 69.2347 128.623 68.1547 129.271C67.0927 129.919 65.9047 130.243 64.5907 130.243C63.3307 130.243 62.2147 129.964 61.2427 129.406C60.2887 128.83 59.5597 128.119 59.0557 127.273V137.02H56.5987V115.204H59.0557V117.931ZM69.0997 122.548C69.0997 121.432 68.8747 120.46 68.4247 119.632C67.9747 118.804 67.3627 118.174 66.5887 117.742C65.8327 117.31 64.9957 117.094 64.0777 117.094C63.1777 117.094 62.3407 117.319 61.5667 117.769C60.8107 118.201 60.1987 118.84 59.7307 119.686C59.2807 120.514 59.0557 121.477 59.0557 122.575C59.0557 123.691 59.2807 124.672 59.7307 125.518C60.1987 126.346 60.8107 126.985 61.5667 127.435C62.3407 127.867 63.1777 128.083 64.0777 128.083C64.9957 128.083 65.8327 127.867 66.5887 127.435C67.3627 126.985 67.9747 126.346 68.4247 125.518C68.8747 124.672 69.0997 123.682 69.0997 122.548ZM77.6018 110.02V130H75.1448V110.02H77.6018ZM88.5424 130.243C87.1564 130.243 85.8964 129.928 84.7624 129.298C83.6464 128.668 82.7644 127.777 82.1164 126.625C81.4864 125.455 81.1714 124.105 81.1714 122.575C81.1714 121.063 81.4954 119.731 82.1434 118.579C82.8094 117.409 83.7094 116.518 84.8434 115.906C85.9774 115.276 87.2464 114.961 88.6504 114.961C90.0544 114.961 91.3234 115.276 92.4574 115.906C93.5914 116.518 94.4824 117.4 95.1304 118.552C95.7964 119.704 96.1294 121.045 96.1294 122.575C96.1294 124.105 95.7874 125.455 95.1034 126.625C94.4374 127.777 93.5284 128.668 92.3764 129.298C91.2244 129.928 89.9464 130.243 88.5424 130.243ZM88.5424 128.083C89.4244 128.083 90.2524 127.876 91.0264 127.462C91.8004 127.048 92.4214 126.427 92.8894 125.599C93.3754 124.771 93.6184 123.763 93.6184 122.575C93.6184 121.387 93.3844 120.379 92.9164 119.551C92.4484 118.723 91.8364 118.111 91.0804 117.715C90.3244 117.301 89.5054 117.094 88.6234 117.094C87.7234 117.094 86.8954 117.301 86.1394 117.715C85.4014 118.111 84.8074 118.723 84.3574 119.551C83.9074 120.379 83.6824 121.387 83.6824 122.575C83.6824 123.781 83.8984 124.798 84.3304 125.626C84.7804 126.454 85.3744 127.075 86.1124 127.489C86.8504 127.885 87.6604 128.083 88.5424 128.083ZM98.7419 122.548C98.7419 121.036 99.0479 119.713 99.6599 118.579C100.272 117.427 101.109 116.536 102.171 115.906C103.251 115.276 104.448 114.961 105.762 114.961C107.058 114.961 108.183 115.24 109.137 115.798C110.091 116.356 110.802 117.058 111.27 117.904V115.204H113.754V130H111.27V127.246C110.784 128.11 110.055 128.83 109.083 129.406C108.129 129.964 107.013 130.243 105.735 130.243C104.421 130.243 103.233 129.919 102.171 129.271C101.109 128.623 100.272 127.714 99.6599 126.544C99.0479 125.374 98.7419 124.042 98.7419 122.548ZM111.27 122.575C111.27 121.459 111.045 120.487 110.595 119.659C110.145 118.831 109.533 118.201 108.759 117.769C108.003 117.319 107.166 117.094 106.248 117.094C105.33 117.094 104.493 117.31 103.737 117.742C102.981 118.174 102.378 118.804 101.928 119.632C101.478 120.46 101.253 121.432 101.253 122.548C101.253 123.682 101.478 124.672 101.928 125.518C102.378 126.346 102.981 126.985 103.737 127.435C104.493 127.867 105.33 128.083 106.248 128.083C107.166 128.083 108.003 127.867 108.759 127.435C109.533 126.985 110.145 126.346 110.595 125.518C111.045 124.672 111.27 123.691 111.27 122.575ZM117.288 122.548C117.288 121.036 117.594 119.713 118.206 118.579C118.818 117.427 119.655 116.536 120.717 115.906C121.797 115.276 123.003 114.961 124.335 114.961C125.487 114.961 126.558 115.231 127.548 115.771C128.538 116.293 129.294 116.986 129.816 117.85V110.02H132.3V130H129.816V127.219C129.33 128.101 128.61 128.83 127.656 129.406C126.702 129.964 125.586 130.243 124.308 130.243C122.994 130.243 121.797 129.919 120.717 129.271C119.655 128.623 118.818 127.714 118.206 126.544C117.594 125.374 117.288 124.042 117.288 122.548ZM129.816 122.575C129.816 121.459 129.591 120.487 129.141 119.659C128.691 118.831 128.079 118.201 127.305 117.769C126.549 117.319 125.712 117.094 124.794 117.094C123.876 117.094 123.039 117.31 122.283 117.742C121.527 118.174 120.924 118.804 120.474 119.632C120.024 120.46 119.799 121.432 119.799 122.548C119.799 123.682 120.024 124.672 120.474 125.518C120.924 126.346 121.527 126.985 122.283 127.435C123.039 127.867 123.876 128.083 124.794 128.083C125.712 128.083 126.549 127.867 127.305 127.435C128.079 126.985 128.691 126.346 129.141 125.518C129.591 124.672 129.816 123.691 129.816 122.575ZM156.832 116.689C156.832 118.255 156.292 119.56 155.212 120.604C154.15 121.63 152.521 122.143 150.325 122.143H146.707V130H144.25V111.181H150.325C152.449 111.181 154.06 111.694 155.158 112.72C156.274 113.746 156.832 115.069 156.832 116.689ZM150.325 120.118C151.693 120.118 152.701 119.821 153.349 119.227C153.997 118.633 154.321 117.787 154.321 116.689C154.321 114.367 152.989 113.206 150.325 113.206H146.707V120.118H150.325ZM171.31 125.815H163.102L161.59 130H158.998L165.802 111.289H168.637L175.414 130H172.822L171.31 125.815ZM170.608 123.817L167.206 114.313L163.804 123.817H170.608ZM193.475 130H191.018L181.136 115.015V130H178.679V111.154H181.136L191.018 126.112V111.154H193.475V130ZM204.544 122.575C204.544 121.045 204.85 119.713 205.462 118.579C206.074 117.427 206.92 116.536 208 115.906C209.098 115.276 210.349 114.961 211.753 114.961C213.571 114.961 215.065 115.402 216.235 116.284C217.423 117.166 218.206 118.39 218.584 119.956H215.938C215.686 119.056 215.191 118.345 214.453 117.823C213.733 117.301 212.833 117.04 211.753 117.04C210.349 117.04 209.215 117.526 208.351 118.498C207.487 119.452 207.055 120.811 207.055 122.575C207.055 124.357 207.487 125.734 208.351 126.706C209.215 127.678 210.349 128.164 211.753 128.164C212.833 128.164 213.733 127.912 214.453 127.408C215.173 126.904 215.668 126.184 215.938 125.248H218.584C218.188 126.76 217.396 127.975 216.208 128.893C215.02 129.793 213.535 130.243 211.753 130.243C210.349 130.243 209.098 129.928 208 129.298C206.92 128.668 206.074 127.777 205.462 126.625C204.85 125.473 204.544 124.123 204.544 122.575ZM221.244 122.548C221.244 121.036 221.55 119.713 222.162 118.579C222.774 117.427 223.611 116.536 224.673 115.906C225.753 115.276 226.95 114.961 228.264 114.961C229.56 114.961 230.685 115.24 231.639 115.798C232.593 116.356 233.304 117.058 233.772 117.904V115.204H236.256V130H233.772V127.246C233.286 128.11 232.557 128.83 231.585 129.406C230.631 129.964 229.515 130.243 228.237 130.243C226.923 130.243 225.735 129.919 224.673 129.271C223.611 128.623 222.774 127.714 222.162 126.544C221.55 125.374 221.244 124.042 221.244 122.548ZM233.772 122.575C233.772 121.459 233.547 120.487 233.097 119.659C232.647 118.831 232.035 118.201 231.261 117.769C230.505 117.319 229.668 117.094 228.75 117.094C227.832 117.094 226.995 117.31 226.239 117.742C225.483 118.174 224.88 118.804 224.43 119.632C223.98 120.46 223.755 121.432 223.755 122.548C223.755 123.682 223.98 124.672 224.43 125.518C224.88 126.346 225.483 126.985 226.239 127.435C226.995 127.867 227.832 128.083 228.75 128.083C229.668 128.083 230.505 127.867 231.261 127.435C232.035 126.985 232.647 126.346 233.097 125.518C233.547 124.672 233.772 123.691 233.772 122.575ZM243.165 117.607C243.597 116.761 244.209 116.104 245.001 115.636C245.811 115.168 246.792 114.934 247.944 114.934V117.472H247.296C244.542 117.472 243.165 118.966 243.165 121.954V130H240.708V115.204H243.165V117.607ZM250.163 122.548C250.163 121.036 250.469 119.713 251.081 118.579C251.693 117.427 252.53 116.536 253.592 115.906C254.672 115.276 255.878 114.961 257.21 114.961C258.362 114.961 259.433 115.231 260.423 115.771C261.413 116.293 262.169 116.986 262.691 117.85V110.02H265.175V130H262.691V127.219C262.205 128.101 261.485 128.83 260.531 129.406C259.577 129.964 258.461 130.243 257.183 130.243C255.869 130.243 254.672 129.919 253.592 129.271C252.53 128.623 251.693 127.714 251.081 126.544C250.469 125.374 250.163 124.042 250.163 122.548ZM262.691 122.575C262.691 121.459 262.466 120.487 262.016 119.659C261.566 118.831 260.954 118.201 260.18 117.769C259.424 117.319 258.587 117.094 257.669 117.094C256.751 117.094 255.914 117.31 255.158 117.742C254.402 118.174 253.799 118.804 253.349 119.632C252.899 120.46 252.674 121.432 252.674 122.548C252.674 123.682 252.899 124.672 253.349 125.518C253.799 126.346 254.402 126.985 255.158 127.435C255.914 127.867 256.751 128.083 257.669 128.083C258.587 128.083 259.424 127.867 260.18 127.435C260.954 126.985 261.566 126.346 262.016 125.518C262.466 124.672 262.691 123.691 262.691 122.575Z" fill="#797979"/>
<path d="M175.174 27.368V24.8138C175.168 22.7833 174.417 20.8377 173.083 19.402C171.749 17.9662 169.941 17.157 168.055 17.1511H120.592C118.706 17.157 116.898 17.9662 115.564 19.402C114.23 20.8377 113.479 22.7833 113.473 24.8138V65.6814C113.479 67.7118 114.23 69.6574 115.564 71.0932C116.898 72.5289 118.706 73.3381 120.592 73.344H122.966" stroke="#919191" stroke-width="1.5" stroke-linejoin="round"/>
<path d="M177.845 29.9226H132.16C128.392 29.9226 125.338 33.2096 125.338 37.2644V76.2195C125.338 80.2743 128.392 83.5613 132.16 83.5613H177.845C181.612 83.5613 184.666 80.2743 184.666 76.2195V37.2644C184.666 33.2096 181.612 29.9226 177.845 29.9226Z" stroke="#919191" stroke-width="1.5" stroke-linejoin="round"/>
<path d="M166.411 49.4287C168.932 49.4287 170.975 47.2452 170.975 44.5518C170.975 41.8583 168.932 39.6748 166.411 39.6748C163.891 39.6748 161.847 41.8583 161.847 44.5518C161.847 47.2452 163.891 49.4287 166.411 49.4287Z" stroke="#919191" stroke-width="1.5" stroke-miterlimit="10"/>
<path d="M150.438 83.5609L168.028 64.7666C168.837 63.9074 169.913 63.4015 171.049 63.3463C172.185 63.2912 173.299 63.6908 174.177 64.4681L184.666 73.8085M161.847 68.9012L148.921 55.11C148.095 54.2313 146.99 53.7227 145.828 53.6868C144.667 53.651 143.537 54.0906 142.665 54.9169L125.338 71.3709L161.847 68.9012Z" stroke="#919191" stroke-width="1.5" stroke-linecap="round" stroke-linejoin="round"/>
</svg>
