<svg width="318" height="154" viewBox="0 0 318 154" fill="none" xmlns="http://www.w3.org/2000/svg">
<rect width="318" height="154" fill="white"/>
<path d="M183.701 48.2169V45.6627C183.695 43.6322 182.944 41.6866 181.61 40.2509C180.276 38.8151 178.468 38.0059 176.581 38H129.119C127.233 38.0059 125.425 38.8151 124.091 40.2509C122.757 41.6866 122.005 43.6322 122 45.6627V86.5303C122.005 88.5607 122.757 90.5063 124.091 91.9421C125.425 93.3778 127.233 94.187 129.119 94.1929H131.492" stroke="#919191" stroke-width="1.5" stroke-linejoin="round"/>
<path d="M186.372 50.7715H140.686C136.919 50.7715 133.865 54.0585 133.865 58.1133V97.0684C133.865 101.123 136.919 104.41 140.686 104.41H186.372C190.139 104.41 193.193 101.123 193.193 97.0684V58.1133C193.193 54.0585 190.139 50.7715 186.372 50.7715Z" stroke="#919191" stroke-width="1.5" stroke-linejoin="round"/>
<path d="M174.938 70.2776C177.459 70.2776 179.502 68.0941 179.502 65.4007C179.502 62.7072 177.459 60.5237 174.938 60.5237C172.418 60.5237 170.374 62.7072 170.374 65.4007C170.374 68.0941 172.418 70.2776 174.938 70.2776Z" stroke="#919191" stroke-width="1.5" stroke-miterlimit="10"/>
<path d="M158.965 104.41L176.554 85.6155C177.364 84.7563 178.44 84.2503 179.576 84.1952C180.712 84.1401 181.826 84.5397 182.704 85.3169L193.193 94.6574M170.374 89.7501L157.448 75.9589C156.622 75.0802 155.516 74.5716 154.355 74.5357C153.194 74.4999 152.064 74.9395 151.192 75.7657L133.865 92.2197L170.374 89.7501Z" stroke="#919191" stroke-width="1.5" stroke-linecap="round" stroke-linejoin="round"/>
</svg>
