<svg width="238" height="265" viewBox="0 0 238 265" fill="none" xmlns="http://www.w3.org/2000/svg">
<circle cx="119" cy="146" r="119" fill="#A7D2CF"/>
<mask id="mask0" mask-type="alpha" maskUnits="userSpaceOnUse" x="0" y="27" width="238" height="238">
<circle cx="119" cy="146" r="119" fill="#A7D2CF"/>
</mask>
<g mask="url(#mask0)">
<path opacity="0.2" d="M90.5 167C16.5 167.8 -13 197.334 -18.5 212L-2 262L276 300.5L255 239C202 288 183 166 90.5 167Z" fill="white"/>
<path opacity="0.2" d="M74 196C34.8 186 -3.33333 230.167 -17.5 253.5L147 306.5L299 242C276.667 215.333 224.9 162 196.5 162C161 162 123 208.5 74 196Z" fill="white"/>
<path opacity="0.2" d="M53 158.5C27.8 137.7 -23.6667 170.5 -54 194L-74 325.5L333 301.5C322.667 256 299.7 163.7 290.5 158.5C279 152 219 120 178.5 111.5C138 103 84.5 184.5 53 158.5Z" fill="white"/>
</g>
<path fill-rule="evenodd" clip-rule="evenodd" d="M141.975 36.4701C146.583 31.0614 149.702 24.4329 149.181 17.0054C147.679 -4.39504 117.889 0.312792 112.094 11.1139C106.3 21.915 106.988 49.313 114.477 51.2434C117.464 52.0133 123.827 50.1274 130.302 46.2243L126.238 74.98H150.238L141.975 36.4701Z" fill="#B28B67"/>
<path fill-rule="evenodd" clip-rule="evenodd" d="M129.102 19.369C128.184 32.1662 125.754 38.5648 121.812 38.5648C115.899 38.5648 110.883 34.8112 108.288 34.8112C106.397 34.8112 106.819 37.1778 108.073 38.9326C109.107 40.3803 114.144 41.7757 114.144 44.0202C114.144 46.2646 110.164 44.5282 110.164 45.8593C110.164 48.0612 109.465 52.2011 113.287 52.2011C117.154 52.2011 128.243 50.7917 130.143 45.0516C131.37 41.3471 132.163 33.6707 132.522 22.0223C132.757 21.9944 132.996 21.9801 133.238 21.9801C136.551 21.9801 139.238 24.6664 139.238 27.9801C139.238 29.6623 138.545 31.1829 137.43 32.2723C138.819 34.2319 140.374 36.279 142.157 38.3913C148.855 34.3728 153.826 22.6091 147.277 11.3084C145.467 5.77235 141.37 2.81535 136.53 1.44232C132.61 -0.197471 128.541 -0.382359 125.106 0.60068C118.372 1.17827 112.359 3.23162 110.655 4.45106C110.655 10.8263 111.89 12.7178 122.441 12.5511C125.034 13.9202 127.027 16.278 129.102 19.369Z" fill="#191847"/>
<mask id="mask1" mask-type="alpha" maskUnits="userSpaceOnUse" x="0" y="27" width="238" height="238">
<circle cx="119" cy="146" r="119" fill="#A7D2CF"/>
<mask id="mask2" maskUnits="userSpaceOnUse" x="0" y="27" width="238" height="238">
<circle cx="119" cy="146" r="119" fill="#A7D2CF"/>
</mask>
<g mask="url(#mask2)">
<path opacity="0.2" d="M90.5 167C16.5 167.8 -13 197.334 -18.5 212L-2 262L276 300.5L255 239C202 288 183 166 90.5 167Z" fill="#2C7873"/>
<path opacity="0.2" d="M74 196C34.8 186 -3.33333 230.167 -17.5 253.5L147 306.5L299 242C276.667 215.333 224.9 162 196.5 162C161 162 123 208.5 74 196Z" fill="#2C7873"/>
<path opacity="0.2" d="M53 158.5C27.8 137.7 -23.6667 170.5 -54 194L-74 325.5L333 301.5C322.667 256 299.7 163.7 290.5 158.5C279 152 219 120 178.5 111.5C138 103 84.5 184.5 53 158.5Z" fill="#2C7873"/>
</g>
</mask>
<g mask="url(#mask1)">
<path fill-rule="evenodd" clip-rule="evenodd" d="M141.738 35.4901C146.346 30.0814 149.464 23.4529 148.943 16.0255C147.442 -5.37502 117.651 -0.667189 111.857 10.1339C106.062 20.9351 106.75 48.333 114.24 50.2635C117.226 51.0333 123.589 49.1475 130.065 45.2443L126 74H150L141.738 35.4901Z" fill="#B28B67"/>
<path fill-rule="evenodd" clip-rule="evenodd" d="M128.865 18.3891C127.946 31.1862 125.516 37.5848 121.574 37.5848C115.661 37.5848 110.645 33.8312 108.05 33.8312C106.159 33.8312 106.581 36.1979 107.835 37.9526C108.869 39.4003 113.906 40.7958 113.906 43.0402C113.906 45.2846 109.927 43.5482 109.927 44.8794C109.927 47.0812 109.227 51.2211 113.049 51.2211C116.916 51.2211 128.005 49.8117 129.906 44.0716C131.132 40.3671 131.925 32.6907 132.285 21.0424C132.519 21.0145 132.758 21.0001 133 21.0001C136.314 21.0001 139 23.6864 139 27.0001C139 28.6824 138.308 30.2029 137.193 31.2923C138.581 33.2519 140.137 35.299 141.92 37.4113C148.618 33.3928 153.588 21.6291 147.04 10.3284C145.23 4.79237 141.132 1.83537 136.293 0.462338C132.373 -1.17745 128.303 -1.36234 124.868 -0.379301C118.134 0.198292 112.121 2.25164 110.417 3.47108C110.417 9.8463 111.652 11.7378 122.203 11.5711C124.796 12.9403 126.789 15.298 128.865 18.3891Z" fill="#191847"/>
<path fill-rule="evenodd" clip-rule="evenodd" d="M31.1163 175.096C23.9364 165.358 5.98922 171.804 6.00003 179.865C6.02843 201.031 25.3433 301.512 26.3518 307.856C27.3603 314.2 38.1634 316.275 38.7925 308.348C39.7935 295.736 41.6532 252.013 39.7925 231.671C39.249 225.73 38.6759 219.987 38.0986 214.607C48.2498 232.843 63.6859 258.619 84.4069 291.934L95.9235 286.672C86.8799 256.876 79.4642 235.841 73.6766 223.566C63.7668 202.55 54.4747 184.552 50.564 178.212C45.3982 169.838 37.0194 170.949 31.1163 175.096Z" fill="#B28B67"/>
<path fill-rule="evenodd" clip-rule="evenodd" d="M95.1001 270.125L55.5725 176.487C46.1032 161.255 19.5537 179.587 22.783 188.422C30.1143 208.479 67.4001 273.414 69.5844 279.39L95.1001 270.125Z" fill="#1F28CF"/>
<path fill-rule="evenodd" clip-rule="evenodd" d="M5.00003 187.176C5.00003 213.718 16.6338 276.106 16.6418 281.95L44.8239 281C39.8976 226.757 37.8201 199.452 38.5915 199.084C40.3271 198.257 109.738 208.691 130.555 209.479C160.574 210.615 172.992 192.199 174 157.25H115.852C66.131 163.186 33.452 167.314 17.8155 169.634C7.77414 171.125 5.00003 179.865 5.00003 187.176Z" fill="#2B44FF"/>
<path fill-rule="evenodd" clip-rule="evenodd" d="M67.4406 265.047L60.9873 266.656C52.4132 268.794 47.1955 277.477 49.3333 286.051L51.2687 293.814C53.4064 302.388 62.0901 307.606 70.6642 305.468L77.1175 303.859C85.6916 301.721 90.9092 293.037 88.7715 284.463L86.8361 276.701C84.6983 268.127 76.0147 262.909 67.4406 265.047ZM74.1259 272.689C76.2694 272.155 78.4403 273.459 78.9747 275.602L82.346 289.124C82.8805 291.268 81.5761 293.438 79.4325 293.973L63.9789 297.826C61.8354 298.36 59.6645 297.056 59.13 294.912L55.7587 281.391C55.2243 279.247 56.5287 277.076 58.6722 276.542L74.1259 272.689Z" fill="#C5CFD6"/>
<path fill-rule="evenodd" clip-rule="evenodd" d="M177 163H70C64.4771 163 60 167.477 60 173V222H183C185.209 222 187 220.209 187 218V173C187 167.477 182.523 163 177 163Z" fill="#2F3676"/>
<path fill-rule="evenodd" clip-rule="evenodd" d="M70 163H67.8063C62.9088 163 58.7319 166.547 57.9384 171.38L36 305H46.6857" fill="#2F3676"/>
<path fill-rule="evenodd" clip-rule="evenodd" d="M174 323C215.974 323 250 288.974 250 247C250 205.026 215.974 171 174 171C132.026 171 98 205.026 98 247C98 288.974 132.026 323 174 323ZM174 309C139.758 309 112 281.242 112 247C112 212.758 139.758 185 174 185C208.242 185 236 212.758 236 247C236 281.242 208.242 309 174 309Z" fill="#191847"/>
<path d="M170 181H178V313H170V181Z" fill="#191847"/>
<path d="M125.917 201.745L128.745 198.917C129.526 198.136 130.792 198.136 131.574 198.917L222.083 289.426C222.864 290.207 222.864 291.474 222.083 292.255L219.255 295.083C218.474 295.864 217.207 295.864 216.426 295.083L125.917 204.574C125.136 203.792 125.136 202.526 125.917 201.745Z" fill="#191847"/>
<path d="M108 249V245C108 243.895 108.895 243 110 243H238C239.105 243 240 243.895 240 245V249C240 250.105 239.105 251 238 251H110C108.895 251 108 250.105 108 249Z" fill="#191847"/>
<path d="M128.745 295.083L125.917 292.255C125.136 291.474 125.136 290.208 125.917 289.427L216.426 198.917C217.207 198.136 218.474 198.136 219.255 198.917L222.083 201.745C222.864 202.526 222.864 203.793 222.083 204.574L131.574 295.083C130.793 295.865 129.526 295.865 128.745 295.083Z" fill="#191847"/>
<path fill-rule="evenodd" clip-rule="evenodd" d="M73.2189 144.211L41.3206 167.635C32.6691 169.97 25.4411 172.874 19.6365 176.348C18.2654 177.598 16.6082 180.128 22.2947 179.691C27.9811 179.254 33.9821 179.049 34.7667 180.989C35.5513 182.928 32.1102 185.248 33.6963 187.865C34.7536 189.61 39.7491 185.235 48.6826 174.741L80.2703 161.642L73.2189 144.211ZM195.692 145.02L174.795 145.102C187.698 186.756 194.664 208.857 195.692 211.406C198.006 217.14 193.109 225.874 191.016 230.567C197.836 233.619 197.109 222.317 205.712 226.319C213.565 229.973 219.538 236.592 228.611 230.994C229.726 230.306 230.949 227.715 227.996 225.69C220.638 220.644 210.035 211.815 208.602 208.908C206.649 204.945 202.345 183.649 195.692 145.02Z" fill="#B28B67"/>
<path fill-rule="evenodd" clip-rule="evenodd" d="M136.305 57.3321L127.658 55.8489C95.5748 83.5643 82.397 136.809 43.0707 165.015L52.5362 176.748C120.76 168.301 137.67 103.355 136.305 57.3321Z" fill="#FA4A0C"/>
<path fill-rule="evenodd" clip-rule="evenodd" d="M174 166C139.328 166 113.824 166 97.4886 166C93.9924 166 94.6512 160.952 95.1566 158.404C100.989 129.004 123.759 97.3115 123.759 55.4607L145.828 52C164.083 81.3584 170.395 117.505 174 166Z" fill="#DDE3E9"/>
<path fill-rule="evenodd" clip-rule="evenodd" d="M173.385 80.858C176.59 79.9367 179.129 77.7877 181 74.4113C189.066 59.8561 186.153 51.8425 177.533 49.2083C168.912 46.5742 161.225 52.0001 147.49 52.0001C146.743 52.0001 146.059 52.0469 145.437 52.1406L138.528 52.5348C118.706 119.715 113.239 164.537 122.128 187H182.348C185.916 195.32 189.33 202.32 192.591 208H209C210.544 158.067 198.673 115.686 173.385 80.858Z" fill="#FA4A0C"/>
<path fill-rule="evenodd" clip-rule="evenodd" d="M169.235 152.498C167.341 168.344 164.263 179.845 160 187H182.348C178.186 177.295 173.815 165.794 169.235 152.498Z" fill="black" fill-opacity="0.1"/>
</g>
</svg>
