<svg width="319" height="176" viewBox="0 0 319 176" fill="none" xmlns="http://www.w3.org/2000/svg">
<rect width="319" height="176" rx="6" fill="url(#paint0_linear)"/>
<path d="M27.512 88.008C27.512 87.128 27.816 86.384 28.424 85.776C29.032 85.152 29.776 84.84 30.656 84.84C31.536 84.84 32.28 85.144 32.888 85.752C33.496 86.36 33.8 87.112 33.8 88.008C33.8 88.888 33.496 89.632 32.888 90.24C32.28 90.832 31.536 91.128 30.656 91.128C29.776 91.128 29.032 90.832 28.424 90.24C27.816 89.632 27.512 88.888 27.512 88.008ZM36.8167 88.008C36.8167 87.128 37.1207 86.384 37.7287 85.776C38.3367 85.152 39.0807 84.84 39.9607 84.84C40.8407 84.84 41.5847 85.144 42.1927 85.752C42.8007 86.36 43.1047 87.112 43.1047 88.008C43.1047 88.888 42.8007 89.632 42.1927 90.24C41.5847 90.832 40.8407 91.128 39.9607 91.128C39.0807 91.128 38.3367 90.832 37.7287 90.24C37.1207 89.632 36.8167 88.888 36.8167 88.008ZM46.1214 88.008C46.1214 87.128 46.4254 86.384 47.0334 85.776C47.6414 85.152 48.3854 84.84 49.2654 84.84C50.1454 84.84 50.8894 85.144 51.4974 85.752C52.1054 86.36 52.4094 87.112 52.4094 88.008C52.4094 88.888 52.1054 89.632 51.4974 90.24C50.8894 90.832 50.1454 91.128 49.2654 91.128C48.3854 91.128 47.6414 90.832 47.0334 90.24C46.4254 89.632 46.1214 88.888 46.1214 88.008ZM55.4261 88.008C55.4261 87.128 55.7301 86.384 56.3381 85.776C56.9461 85.152 57.6901 84.84 58.5701 84.84C59.4501 84.84 60.1941 85.144 60.8021 85.752C61.4101 86.36 61.7141 87.112 61.7141 88.008C61.7141 88.888 61.4101 89.632 60.8021 90.24C60.1941 90.832 59.4501 91.128 58.5701 91.128C57.6901 91.128 56.9461 90.832 56.3381 90.24C55.7301 89.632 55.4261 88.888 55.4261 88.008ZM81.6058 88.008C81.6058 87.128 81.9098 86.384 82.5178 85.776C83.1258 85.152 83.8698 84.84 84.7498 84.84C85.6298 84.84 86.3738 85.144 86.9818 85.752C87.5898 86.36 87.8938 87.112 87.8938 88.008C87.8938 88.888 87.5898 89.632 86.9818 90.24C86.3738 90.832 85.6298 91.128 84.7498 91.128C83.8698 91.128 83.1258 90.832 82.5178 90.24C81.9098 89.632 81.6058 88.888 81.6058 88.008ZM90.9104 88.008C90.9104 87.128 91.2144 86.384 91.8224 85.776C92.4304 85.152 93.1744 84.84 94.0544 84.84C94.9344 84.84 95.6784 85.144 96.2864 85.752C96.8944 86.36 97.1984 87.112 97.1984 88.008C97.1984 88.888 96.8944 89.632 96.2864 90.24C95.6784 90.832 94.9344 91.128 94.0544 91.128C93.1744 91.128 92.4304 90.832 91.8224 90.24C91.2144 89.632 90.9104 88.888 90.9104 88.008ZM100.215 88.008C100.215 87.128 100.519 86.384 101.127 85.776C101.735 85.152 102.479 84.84 103.359 84.84C104.239 84.84 104.983 85.144 105.591 85.752C106.199 86.36 106.503 87.112 106.503 88.008C106.503 88.888 106.199 89.632 105.591 90.24C104.983 90.832 104.239 91.128 103.359 91.128C102.479 91.128 101.735 90.832 101.127 90.24C100.519 89.632 100.215 88.888 100.215 88.008ZM109.52 88.008C109.52 87.128 109.824 86.384 110.432 85.776C111.04 85.152 111.784 84.84 112.664 84.84C113.544 84.84 114.288 85.144 114.896 85.752C115.504 86.36 115.808 87.112 115.808 88.008C115.808 88.888 115.504 89.632 114.896 90.24C114.288 90.832 113.544 91.128 112.664 91.128C111.784 91.128 111.04 90.832 110.432 90.24C109.824 89.632 109.52 88.888 109.52 88.008ZM135.7 88.008C135.7 87.128 136.004 86.384 136.612 85.776C137.22 85.152 137.964 84.84 138.844 84.84C139.724 84.84 140.468 85.144 141.076 85.752C141.684 86.36 141.988 87.112 141.988 88.008C141.988 88.888 141.684 89.632 141.076 90.24C140.468 90.832 139.724 91.128 138.844 91.128C137.964 91.128 137.22 90.832 136.612 90.24C136.004 89.632 135.7 88.888 135.7 88.008ZM145.004 88.008C145.004 87.128 145.308 86.384 145.916 85.776C146.524 85.152 147.268 84.84 148.148 84.84C149.028 84.84 149.772 85.144 150.38 85.752C150.988 86.36 151.292 87.112 151.292 88.008C151.292 88.888 150.988 89.632 150.38 90.24C149.772 90.832 149.028 91.128 148.148 91.128C147.268 91.128 146.524 90.832 145.916 90.24C145.308 89.632 145.004 88.888 145.004 88.008ZM154.309 88.008C154.309 87.128 154.613 86.384 155.221 85.776C155.829 85.152 156.573 84.84 157.453 84.84C158.333 84.84 159.077 85.144 159.685 85.752C160.293 86.36 160.597 87.112 160.597 88.008C160.597 88.888 160.293 89.632 159.685 90.24C159.077 90.832 158.333 91.128 157.453 91.128C156.573 91.128 155.829 90.832 155.221 90.24C154.613 89.632 154.309 88.888 154.309 88.008ZM163.614 88.008C163.614 87.128 163.918 86.384 164.526 85.776C165.134 85.152 165.878 84.84 166.758 84.84C167.638 84.84 168.382 85.144 168.99 85.752C169.598 86.36 169.902 87.112 169.902 88.008C169.902 88.888 169.598 89.632 168.99 90.24C168.382 90.832 167.638 91.128 166.758 91.128C165.878 91.128 165.134 90.832 164.526 90.24C163.918 89.632 163.614 88.888 163.614 88.008ZM195.481 78.528C196.601 78.528 197.561 78.728 198.361 79.128C199.161 79.512 199.761 80.048 200.161 80.736C200.577 81.424 200.785 82.192 200.785 83.04C200.785 84.112 200.481 85.008 199.873 85.728C199.281 86.432 198.441 86.856 197.353 87V87.12C198.521 87.456 199.433 87.96 200.089 88.632C200.761 89.288 201.097 90.2 201.097 91.368C201.097 92.792 200.625 93.952 199.681 94.848C198.737 95.728 197.385 96.168 195.625 96.168C193.817 96.168 192.361 95.712 191.257 94.8C190.153 93.872 189.521 92.504 189.361 90.696H192.073C192.169 91.656 192.513 92.424 193.105 93C193.697 93.56 194.497 93.84 195.505 93.84C196.449 93.84 197.169 93.592 197.665 93.096C198.177 92.6 198.433 91.96 198.433 91.176C198.433 90.232 198.065 89.512 197.329 89.016C196.609 88.52 195.561 88.272 194.185 88.272H193.537V86.016H194.185C196.793 86.048 198.097 85.16 198.097 83.352C198.097 82.568 197.857 81.952 197.377 81.504C196.897 81.056 196.241 80.832 195.409 80.832C194.577 80.832 193.881 81.088 193.321 81.6C192.761 82.096 192.425 82.824 192.313 83.784H189.625C189.737 82.12 190.297 80.832 191.305 79.92C192.313 78.992 193.705 78.528 195.481 78.528ZM203.371 92.352V90.048L211.795 78.912H214.723V89.952H217.099V92.352H214.723V96H211.963V92.352H203.371ZM212.155 82.176L206.203 89.952H212.155V82.176ZM229.31 81.024L222.998 96H220.118L226.526 81.336H218.126V78.96H229.31V81.024ZM240.466 83.616C240.178 81.728 239.194 80.784 237.514 80.784C236.298 80.784 235.386 81.272 234.778 82.248C234.17 83.208 233.866 84.72 233.866 86.784L233.89 87.6C234.13 86.736 234.65 86.048 235.45 85.536C236.25 85.024 237.194 84.768 238.282 84.768C239.946 84.768 241.25 85.264 242.194 86.256C243.138 87.248 243.61 88.648 243.61 90.456C243.61 91.544 243.394 92.52 242.962 93.384C242.53 94.232 241.882 94.912 241.018 95.424C240.154 95.92 239.09 96.168 237.826 96.168C235.378 96.168 233.698 95.408 232.786 93.888C231.874 92.368 231.418 90.28 231.418 87.624C231.418 84.584 231.906 82.312 232.882 80.808C233.858 79.304 235.458 78.552 237.682 78.552C239.346 78.552 240.618 79.024 241.498 79.968C242.394 80.912 242.914 82.128 243.058 83.616H240.466ZM234.13 90.144C234.13 91.184 234.434 92.056 235.042 92.76C235.65 93.448 236.546 93.792 237.73 93.792C238.738 93.792 239.538 93.496 240.13 92.904C240.738 92.312 241.042 91.488 241.042 90.432C241.042 89.296 240.738 88.424 240.13 87.816C239.522 87.208 238.698 86.904 237.658 86.904C236.714 86.904 235.89 87.184 235.186 87.744C234.482 88.304 234.13 89.104 234.13 90.144Z" fill="white"/>
<path d="M30.02 146.504C30.02 147.164 29.708 147.584 29.084 147.584C28.448 147.584 28.124 147.152 28.112 146.444H26.432C26.432 148.136 27.536 149.084 29.108 149.084C30.656 149.084 31.712 148.16 31.712 146.504V140.624H30.02V146.504ZM41.8438 144.788C41.8438 142.28 39.9478 140.504 37.5598 140.504C35.1958 140.504 33.2638 142.28 33.2638 144.788C33.2638 147.308 35.1958 149.084 37.5598 149.084C39.9358 149.084 41.8438 147.308 41.8438 144.788ZM34.9918 144.788C34.9918 143.084 36.0358 142.016 37.5598 142.016C39.0718 142.016 40.1158 143.084 40.1158 144.788C40.1158 146.492 39.0718 147.584 37.5598 147.584C36.0358 147.584 34.9918 146.492 34.9918 144.788ZM48.3616 149H50.0416V140.624H48.3616V144.068H44.7736V140.624H43.0936V149H44.7736V145.436H48.3616V149ZM57.1792 140.612V146.372L53.3752 140.612H51.6952V149H53.3752V143.252L57.1792 149H58.8592V140.612H57.1792ZM65.0708 149.012L67.0388 149L68.6828 143.036L70.2548 149H72.2348L74.5748 140.624H72.7628L71.2748 147.092L69.6668 140.624H67.7948L66.0908 147.128L64.6148 140.624H62.8148L65.0708 149.012ZM75.6718 149H77.3518V140.624H75.6718V149ZM79.0116 140.624V149H83.4516V147.668H80.6916V140.624H79.0116ZM84.5194 140.624V149H88.9594V147.668H86.1994V140.624H84.5194ZM90.0272 149H91.7072V140.624H90.0272V149ZM99.0551 149H100.831L97.8191 140.612H95.8631L92.8511 149H94.6151L95.1671 147.404H98.5031L99.0551 149ZM98.0471 146.06H95.6231L96.8351 142.556L98.0471 146.06ZM101.957 149H103.637V143.552L105.893 149H107.165L109.409 143.552V149H111.089V140.624H109.193L106.529 146.852L103.865 140.624H101.957V149ZM118.606 146.576C118.606 143.624 114.31 144.56 114.31 142.88C114.31 142.196 114.802 141.872 115.462 141.896C116.182 141.908 116.626 142.34 116.662 142.892H118.51C118.402 141.38 117.226 140.504 115.51 140.504C113.782 140.504 112.558 141.416 112.558 142.928C112.546 145.964 116.866 144.872 116.866 146.684C116.866 147.284 116.398 147.704 115.606 147.704C114.826 147.704 114.382 147.26 114.334 146.588H112.534C112.558 148.172 113.902 149.084 115.642 149.084C117.55 149.084 118.606 147.896 118.606 146.576Z" fill="white"/>
<path d="M158.624 142.704C158.624 144.056 158.864 145.116 159.344 145.884C159.824 146.644 160.624 147.024 161.744 147.024C162.864 147.024 163.664 146.64 164.144 145.872C164.624 145.104 164.864 144.048 164.864 142.704C164.864 141.368 164.624 140.32 164.144 139.56C163.664 138.792 162.864 138.408 161.744 138.408C160.624 138.408 159.824 138.788 159.344 139.548C158.864 140.308 158.624 141.36 158.624 142.704ZM163.496 142.704C163.496 143.68 163.376 144.428 163.136 144.948C162.896 145.468 162.432 145.728 161.744 145.728C161.048 145.728 160.58 145.468 160.34 144.948C160.1 144.428 159.98 143.68 159.98 142.704C159.98 141.736 160.1 140.996 160.34 140.484C160.58 139.972 161.048 139.716 161.744 139.716C162.432 139.716 162.896 139.976 163.136 140.496C163.376 141.008 163.496 141.744 163.496 142.704ZM165.633 139.812V138.528H168.345V147H166.905V139.812H165.633ZM173.74 135.672L170.476 149.112H169.144L172.408 135.672H173.74ZM174.171 145.932C175.467 145.044 176.503 144.176 177.279 143.328C178.063 142.472 178.455 141.68 178.455 140.952C178.455 140.52 178.347 140.176 178.131 139.92C177.923 139.664 177.583 139.536 177.111 139.536C176.623 139.536 176.255 139.696 176.007 140.016C175.759 140.328 175.619 140.776 175.587 141.36H174.255C174.311 140.392 174.607 139.652 175.143 139.14C175.687 138.628 176.379 138.372 177.219 138.372C178.043 138.372 178.687 138.592 179.151 139.032C179.623 139.464 179.859 140.064 179.859 140.832C179.859 141.448 179.667 142.072 179.283 142.704C178.907 143.336 178.427 143.92 177.843 144.456C177.259 144.984 176.655 145.44 176.031 145.824H180.051V146.94H174.171V145.932ZM180.92 145.176V144.024L185.132 138.456H186.596V143.976H187.784V145.176H186.596V147H185.216V145.176H180.92ZM185.312 140.088L182.336 143.976H185.312V140.088Z" fill="white"/>
<path opacity="0.5" d="M26.351 126.76C26.351 126.376 26.417 125.995 26.549 125.617C26.687 125.233 26.885 124.891 27.143 124.591C27.407 124.285 27.728 124.039 28.106 123.853C28.484 123.667 28.913 123.574 29.393 123.574C29.963 123.574 30.452 123.703 30.86 123.961C31.268 124.219 31.571 124.555 31.769 124.969L31.13 125.383C31.034 125.179 30.917 125.008 30.779 124.87C30.647 124.732 30.5 124.621 30.338 124.537C30.182 124.453 30.02 124.393 29.852 124.357C29.684 124.321 29.519 124.303 29.357 124.303C29.003 124.303 28.688 124.378 28.412 124.528C28.142 124.672 27.914 124.864 27.728 125.104C27.542 125.338 27.401 125.605 27.305 125.905C27.215 126.199 27.17 126.496 27.17 126.796C27.17 127.132 27.224 127.453 27.332 127.759C27.446 128.059 27.602 128.326 27.8 128.56C27.998 128.794 28.232 128.98 28.502 129.118C28.772 129.256 29.066 129.325 29.384 129.325C29.552 129.325 29.723 129.304 29.897 129.262C30.077 129.22 30.248 129.154 30.41 129.064C30.572 128.968 30.722 128.851 30.86 128.713C31.004 128.569 31.121 128.398 31.211 128.2L31.886 128.569C31.784 128.809 31.64 129.022 31.454 129.208C31.274 129.388 31.067 129.541 30.833 129.667C30.605 129.793 30.362 129.889 30.104 129.955C29.846 130.021 29.594 130.054 29.348 130.054C28.91 130.054 28.508 129.958 28.142 129.766C27.776 129.574 27.458 129.325 27.188 129.019C26.924 128.707 26.717 128.356 26.567 127.966C26.423 127.57 26.351 127.168 26.351 126.76ZM34.7559 123.61H35.4399L38.0499 130H37.1859L36.4299 128.128H33.7479L33.0009 130H32.1369L34.7559 123.61ZM36.2499 127.498L35.0979 124.546L33.9099 127.498H36.2499ZM38.9027 130V123.61H41.6387C41.9207 123.61 42.1787 123.67 42.4127 123.79C42.6527 123.904 42.8567 124.06 43.0247 124.258C43.1987 124.45 43.3337 124.669 43.4297 124.915C43.5257 125.155 43.5737 125.401 43.5737 125.653C43.5737 125.875 43.5407 126.091 43.4747 126.301C43.4147 126.505 43.3247 126.691 43.2047 126.859C43.0907 127.027 42.9497 127.171 42.7817 127.291C42.6197 127.411 42.4367 127.498 42.2327 127.552L43.7807 130H42.8627L41.4047 127.705H39.7127V130H38.9027ZM39.7127 126.985H41.6477C41.8157 126.985 41.9657 126.949 42.0977 126.877C42.2357 126.805 42.3527 126.709 42.4487 126.589C42.5447 126.463 42.6197 126.319 42.6737 126.157C42.7277 125.995 42.7547 125.827 42.7547 125.653C42.7547 125.473 42.7217 125.305 42.6557 125.149C42.5957 124.987 42.5117 124.846 42.4037 124.726C42.3017 124.6 42.1787 124.504 42.0347 124.438C41.8967 124.366 41.7497 124.33 41.5937 124.33H39.7127V126.985ZM44.8177 130V123.61H47.0317C47.5417 123.61 47.9887 123.694 48.3727 123.862C48.7627 124.03 49.0867 124.258 49.3447 124.546C49.6027 124.834 49.7947 125.173 49.9207 125.563C50.0527 125.947 50.1187 126.358 50.1187 126.796C50.1187 127.282 50.0467 127.723 49.9027 128.119C49.7587 128.509 49.5517 128.845 49.2817 129.127C49.0117 129.403 48.6847 129.619 48.3007 129.775C47.9227 129.925 47.4997 130 47.0317 130H44.8177ZM49.2997 126.796C49.2997 126.436 49.2487 126.106 49.1467 125.806C49.0507 125.5 48.9037 125.239 48.7057 125.023C48.5137 124.807 48.2767 124.639 47.9947 124.519C47.7127 124.393 47.3917 124.33 47.0317 124.33H45.6277V129.28H47.0317C47.3977 129.28 47.7217 129.217 48.0037 129.091C48.2917 128.965 48.5287 128.791 48.7147 128.569C48.9067 128.347 49.0507 128.086 49.1467 127.786C49.2487 127.48 49.2997 127.15 49.2997 126.796ZM58.6755 123.61V130H57.8655V127.093H54.3465V130H53.5365V123.61H54.3465V126.373H57.8655V123.61H58.6755ZM62.7994 130.045C62.3494 130.045 61.9384 129.955 61.5664 129.775C61.2004 129.589 60.8854 129.346 60.6214 129.046C60.3574 128.74 60.1534 128.392 60.0094 128.002C59.8654 127.612 59.7934 127.213 59.7934 126.805C59.7934 126.379 59.8684 125.971 60.0184 125.581C60.1744 125.191 60.3874 124.846 60.6574 124.546C60.9274 124.246 61.2454 124.009 61.6114 123.835C61.9834 123.655 62.3854 123.565 62.8174 123.565C63.2674 123.565 63.6754 123.661 64.0414 123.853C64.4074 124.039 64.7224 124.285 64.9864 124.591C65.2504 124.897 65.4544 125.245 65.5984 125.635C65.7424 126.019 65.8144 126.412 65.8144 126.814C65.8144 127.24 65.7364 127.648 65.5804 128.038C65.4304 128.428 65.2204 128.773 64.9504 129.073C64.6864 129.367 64.3684 129.604 63.9964 129.784C63.6304 129.958 63.2314 130.045 62.7994 130.045ZM60.6124 126.805C60.6124 127.129 60.6634 127.444 60.7654 127.75C60.8734 128.05 61.0234 128.317 61.2154 128.551C61.4074 128.785 61.6384 128.971 61.9084 129.109C62.1784 129.247 62.4784 129.316 62.8084 129.316C63.1504 129.316 63.4564 129.244 63.7264 129.1C63.9964 128.95 64.2244 128.758 64.4104 128.524C64.6024 128.284 64.7464 128.014 64.8424 127.714C64.9444 127.414 64.9954 127.111 64.9954 126.805C64.9954 126.481 64.9414 126.169 64.8334 125.869C64.7314 125.563 64.5814 125.296 64.3834 125.068C64.1914 124.834 63.9604 124.648 63.6904 124.51C63.4264 124.372 63.1324 124.303 62.8084 124.303C62.4664 124.303 62.1604 124.375 61.8904 124.519C61.6204 124.663 61.3894 124.852 61.1974 125.086C61.0114 125.32 60.8674 125.587 60.7654 125.887C60.6634 126.187 60.6124 126.493 60.6124 126.805ZM66.9398 130V123.61H67.7498V129.28H71.3138V130H66.9398ZM72.1957 130V123.61H74.4097C74.9197 123.61 75.3667 123.694 75.7507 123.862C76.1407 124.03 76.4647 124.258 76.7227 124.546C76.9807 124.834 77.1727 125.173 77.2987 125.563C77.4307 125.947 77.4967 126.358 77.4967 126.796C77.4967 127.282 77.4247 127.723 77.2807 128.119C77.1367 128.509 76.9297 128.845 76.6597 129.127C76.3897 129.403 76.0627 129.619 75.6787 129.775C75.3007 129.925 74.8777 130 74.4097 130H72.1957ZM76.6777 126.796C76.6777 126.436 76.6267 126.106 76.5247 125.806C76.4287 125.5 76.2817 125.239 76.0837 125.023C75.8917 124.807 75.6547 124.639 75.3727 124.519C75.0907 124.393 74.7697 124.33 74.4097 124.33H73.0057V129.28H74.4097C74.7757 129.28 75.0997 129.217 75.3817 129.091C75.6697 128.965 75.9067 128.791 76.0927 128.569C76.2847 128.347 76.4287 128.086 76.5247 127.786C76.6267 127.48 76.6777 127.15 76.6777 126.796ZM82.976 129.28V130H78.638V123.61H82.895V124.33H79.448V126.4H82.445V127.075H79.448V129.28H82.976ZM84.0873 130V123.61H86.8233C87.1053 123.61 87.3633 123.67 87.5973 123.79C87.8373 123.904 88.0413 124.06 88.2093 124.258C88.3833 124.45 88.5183 124.669 88.6143 124.915C88.7103 125.155 88.7583 125.401 88.7583 125.653C88.7583 125.875 88.7253 126.091 88.6593 126.301C88.5993 126.505 88.5093 126.691 88.3893 126.859C88.2753 127.027 88.1343 127.171 87.9663 127.291C87.8043 127.411 87.6213 127.498 87.4173 127.552L88.9653 130H88.0473L86.5893 127.705H84.8973V130H84.0873ZM84.8973 126.985H86.8323C87.0003 126.985 87.1503 126.949 87.2823 126.877C87.4203 126.805 87.5373 126.709 87.6333 126.589C87.7293 126.463 87.8043 126.319 87.8583 126.157C87.9123 125.995 87.9393 125.827 87.9393 125.653C87.9393 125.473 87.9063 125.305 87.8403 125.149C87.7803 124.987 87.6963 124.846 87.5883 124.726C87.4863 124.6 87.3633 124.504 87.2193 124.438C87.0813 124.366 86.9343 124.33 86.7783 124.33H84.8973V126.985Z" fill="white"/>
<path opacity="0.5" d="M158.945 123.61L161.06 128.983L163.166 123.61H164.021L161.411 130H160.709L158.09 123.61H158.945ZM166.308 123.61H166.992L169.602 130H168.738L167.982 128.128H165.3L164.553 130H163.689L166.308 123.61ZM167.802 127.498L166.65 124.546L165.462 127.498H167.802ZM170.454 130V123.61H171.264V129.28H174.828V130H170.454ZM175.71 130V123.61H176.52V130H175.71ZM178.048 130V123.61H180.262C180.772 123.61 181.219 123.694 181.603 123.862C181.993 124.03 182.317 124.258 182.575 124.546C182.833 124.834 183.025 125.173 183.151 125.563C183.283 125.947 183.349 126.358 183.349 126.796C183.349 127.282 183.277 127.723 183.133 128.119C182.989 128.509 182.782 128.845 182.512 129.127C182.242 129.403 181.915 129.619 181.531 129.775C181.153 129.925 180.73 130 180.262 130H178.048ZM182.53 126.796C182.53 126.436 182.479 126.106 182.377 125.806C182.281 125.5 182.134 125.239 181.936 125.023C181.744 124.807 181.507 124.639 181.225 124.519C180.943 124.393 180.622 124.33 180.262 124.33H178.858V129.28H180.262C180.628 129.28 180.952 129.217 181.234 129.091C181.522 128.965 181.759 128.791 181.945 128.569C182.137 128.347 182.281 128.086 182.377 127.786C182.479 127.48 182.53 127.15 182.53 126.796ZM191.102 124.33H188.897V130H188.087V124.33H185.882V123.61H191.102V124.33ZM192.023 130V123.61H192.833V130H192.023ZM194.361 130V123.61H195.171V129.28H198.735V130H194.361ZM199.617 130V123.61H200.427V129.28H203.991V130H199.617Z" fill="white"/>
<path d="M281.251 20.8192C279.741 20.2666 278.144 19.9893 276.536 20.0003C271.337 20.0003 267.665 22.63 267.639 26.4048C267.606 29.178 270.248 30.7408 272.247 31.6673C274.297 32.62 274.983 33.2203 274.976 34.0719C274.963 35.3671 273.339 35.9544 271.828 35.9544C269.751 35.9544 268.617 35.664 266.872 34.9365L266.225 34.633L265.488 38.9788C266.752 39.5073 269.03 39.9608 271.382 40C276.91 40 280.523 37.3867 280.566 33.3704C280.611 31.1551 279.181 29.4814 276.172 28.0981C274.343 27.2009 273.209 26.6005 273.209 25.6903C273.209 24.8844 274.18 24.0231 276.211 24.0231C277.563 23.9903 278.906 24.2449 280.153 24.7702L280.64 24.9888L281.378 20.7899L281.251 20.8192ZM294.743 20.3527H290.681C289.417 20.3527 288.465 20.7018 287.913 21.9611L280.101 39.7292H285.628L286.733 36.8157L293.479 36.8222C293.638 37.5041 294.126 39.7292 294.126 39.7292H299L294.743 20.3527ZM260.162 20.1895H265.429L262.134 39.5759H256.873L260.162 20.183V20.1895ZM246.79 30.8745L247.336 33.5662L252.483 20.3527H258.063L249.773 39.7031H244.207L239.657 23.3184C239.584 23.0482 239.411 22.8162 239.173 22.6691C237.534 21.8187 235.796 21.1733 234 20.7474L234.071 20.3396H242.549C243.7 20.3853 244.626 20.7474 244.935 21.9807L246.787 30.8843V30.8745H246.79ZM288.244 32.8517L290.343 27.4292C290.317 27.488 290.775 26.3102 291.042 25.5826L291.403 27.2563L292.621 32.8484H288.241V32.8517H288.244Z" fill="white" fill-opacity="0.5"/>
<rect width="319" height="176" rx="6" fill="url(#paint1_linear)"/>
<path d="M38.29 91.331C37.738 91.331 37.232 91.2007 36.772 90.94C36.3273 90.664 35.967 90.3037 35.691 89.859C35.4303 89.399 35.3 88.893 35.3 88.341C35.3 87.4977 35.5913 86.7847 36.174 86.202C36.7567 85.6193 37.462 85.328 38.29 85.328C39.1487 85.328 39.8693 85.6193 40.452 86.202C41.0347 86.7847 41.326 87.4977 41.326 88.341C41.326 89.1843 41.0347 89.8973 40.452 90.48C39.8693 91.0473 39.1487 91.331 38.29 91.331ZM48.914 91.331C48.362 91.331 47.856 91.2007 47.396 90.94C46.9514 90.664 46.591 90.3037 46.315 89.859C46.0544 89.399 45.924 88.893 45.924 88.341C45.924 87.4977 46.2154 86.7847 46.798 86.202C47.3807 85.6193 48.086 85.328 48.914 85.328C49.7727 85.328 50.4934 85.6193 51.076 86.202C51.6587 86.7847 51.95 87.4977 51.95 88.341C51.95 89.1843 51.6587 89.8973 51.076 90.48C50.4934 91.0473 49.7727 91.331 48.914 91.331ZM59.538 91.331C58.986 91.331 58.48 91.2007 58.02 90.94C57.5754 90.664 57.215 90.3037 56.939 89.859C56.6784 89.399 56.548 88.893 56.548 88.341C56.548 87.4977 56.8394 86.7847 57.422 86.202C58.0047 85.6193 58.71 85.328 59.538 85.328C60.3967 85.328 61.1174 85.6193 61.7 86.202C62.2827 86.7847 62.574 87.4977 62.574 88.341C62.574 89.1843 62.2827 89.8973 61.7 90.48C61.1174 91.0473 60.3967 91.331 59.538 91.331ZM70.1621 91.331C69.6101 91.331 69.1041 91.2007 68.6441 90.94C68.1994 90.664 67.8391 90.3037 67.5631 89.859C67.3024 89.399 67.1721 88.893 67.1721 88.341C67.1721 87.4977 67.4634 86.7847 68.0461 86.202C68.6287 85.6193 69.3341 85.328 70.1621 85.328C71.0207 85.328 71.7414 85.6193 72.3241 86.202C72.9067 86.7847 73.1981 87.4977 73.1981 88.341C73.1981 89.1843 72.9067 89.8973 72.3241 90.48C71.7414 91.0473 71.0207 91.331 70.1621 91.331ZM98.7099 91.331C98.1579 91.331 97.6519 91.2007 97.1919 90.94C96.7473 90.664 96.3869 90.3037 96.1109 89.859C95.8503 89.399 95.7199 88.893 95.7199 88.341C95.7199 87.4977 96.0113 86.7847 96.5939 86.202C97.1766 85.6193 97.8819 85.328 98.7099 85.328C99.5686 85.328 100.289 85.6193 100.872 86.202C101.455 86.7847 101.746 87.4977 101.746 88.341C101.746 89.1843 101.455 89.8973 100.872 90.48C100.289 91.0473 99.5686 91.331 98.7099 91.331ZM109.334 91.331C108.782 91.331 108.276 91.2007 107.816 90.94C107.371 90.664 107.011 90.3037 106.735 89.859C106.474 89.399 106.344 88.893 106.344 88.341C106.344 87.4977 106.635 86.7847 107.218 86.202C107.801 85.6193 108.506 85.328 109.334 85.328C110.193 85.328 110.913 85.6193 111.496 86.202C112.079 86.7847 112.37 87.4977 112.37 88.341C112.37 89.1843 112.079 89.8973 111.496 90.48C110.913 91.0473 110.193 91.331 109.334 91.331ZM119.958 91.331C119.406 91.331 118.9 91.2007 118.44 90.94C117.995 90.664 117.635 90.3037 117.359 89.859C117.098 89.399 116.968 88.893 116.968 88.341C116.968 87.4977 117.259 86.7847 117.842 86.202C118.425 85.6193 119.13 85.328 119.958 85.328C120.817 85.328 121.537 85.6193 122.12 86.202C122.703 86.7847 122.994 87.4977 122.994 88.341C122.994 89.1843 122.703 89.8973 122.12 90.48C121.537 91.0473 120.817 91.331 119.958 91.331ZM130.582 91.331C130.03 91.331 129.524 91.2007 129.064 90.94C128.619 90.664 128.259 90.3037 127.983 89.859C127.722 89.399 127.592 88.893 127.592 88.341C127.592 87.4977 127.883 86.7847 128.466 86.202C129.049 85.6193 129.754 85.328 130.582 85.328C131.441 85.328 132.161 85.6193 132.744 86.202C133.327 86.7847 133.618 87.4977 133.618 88.341C133.618 89.1843 133.327 89.8973 132.744 90.48C132.161 91.0473 131.441 91.331 130.582 91.331ZM159.13 91.331C158.578 91.331 158.072 91.2007 157.612 90.94C157.167 90.664 156.807 90.3037 156.531 89.859C156.27 89.399 156.14 88.893 156.14 88.341C156.14 87.4977 156.431 86.7847 157.014 86.202C157.597 85.6193 158.302 85.328 159.13 85.328C159.989 85.328 160.709 85.6193 161.292 86.202C161.875 86.7847 162.166 87.4977 162.166 88.341C162.166 89.1843 161.875 89.8973 161.292 90.48C160.709 91.0473 159.989 91.331 159.13 91.331ZM169.754 91.331C169.202 91.331 168.696 91.2007 168.236 90.94C167.791 90.664 167.431 90.3037 167.155 89.859C166.894 89.399 166.764 88.893 166.764 88.341C166.764 87.4977 167.055 86.7847 167.638 86.202C168.221 85.6193 168.926 85.328 169.754 85.328C170.613 85.328 171.333 85.6193 171.916 86.202C172.499 86.7847 172.79 87.4977 172.79 88.341C172.79 89.1843 172.499 89.8973 171.916 90.48C171.333 91.0473 170.613 91.331 169.754 91.331ZM180.378 91.331C179.826 91.331 179.32 91.2007 178.86 90.94C178.415 90.664 178.055 90.3037 177.779 89.859C177.518 89.399 177.388 88.893 177.388 88.341C177.388 87.4977 177.679 86.7847 178.262 86.202C178.845 85.6193 179.55 85.328 180.378 85.328C181.237 85.328 181.957 85.6193 182.54 86.202C183.123 86.7847 183.414 87.4977 183.414 88.341C183.414 89.1843 183.123 89.8973 182.54 90.48C181.957 91.0473 181.237 91.331 180.378 91.331ZM191.002 91.331C190.45 91.331 189.944 91.2007 189.484 90.94C189.039 90.664 188.679 90.3037 188.403 89.859C188.142 89.399 188.012 88.893 188.012 88.341C188.012 87.4977 188.303 86.7847 188.886 86.202C189.469 85.6193 190.174 85.328 191.002 85.328C191.861 85.328 192.581 85.6193 193.164 86.202C193.747 86.7847 194.038 87.4977 194.038 88.341C194.038 89.1843 193.747 89.8973 193.164 90.48C192.581 91.0473 191.861 91.331 191.002 91.331ZM215.594 83.373C215.686 81.947 216.23 80.8353 217.227 80.038C218.239 79.2407 219.527 78.842 221.091 78.842C222.164 78.842 223.092 79.0337 223.874 79.417C224.656 79.8003 225.246 80.3217 225.645 80.981C226.043 81.6403 226.243 82.384 226.243 83.212C226.243 84.1627 225.99 84.9753 225.484 85.65C224.978 86.3247 224.372 86.777 223.667 87.007V87.099C224.571 87.375 225.277 87.881 225.783 88.617C226.289 89.3377 226.542 90.2653 226.542 91.4C226.542 92.3047 226.335 93.1097 225.921 93.815C225.507 94.5203 224.893 95.08 224.081 95.494C223.268 95.8927 222.294 96.092 221.16 96.092C219.504 96.092 218.139 95.6703 217.066 94.827C216.008 93.9683 215.44 92.7417 215.364 91.147H217.894C217.955 91.9597 218.269 92.6267 218.837 93.148C219.404 93.654 220.171 93.907 221.137 93.907C222.072 93.907 222.793 93.654 223.299 93.148C223.805 92.6267 224.058 91.9597 224.058 91.147C224.058 90.0737 223.713 89.3147 223.023 88.87C222.348 88.41 221.305 88.18 219.895 88.18H219.297V86.018H219.918C221.16 86.0027 222.103 85.7957 222.747 85.397C223.406 84.9983 223.736 84.3697 223.736 83.511C223.736 82.775 223.498 82.1923 223.023 81.763C222.547 81.3183 221.873 81.096 220.999 81.096C220.14 81.096 219.473 81.3183 218.998 81.763C218.522 82.1923 218.239 82.729 218.147 83.373H215.594ZM228.974 92.504V90.526L236.702 79.44H239.876V90.227H242.015V92.504H239.876V96H237.3V92.504H228.974ZM237.415 82.108L231.987 90.227H237.415V82.108ZM254.814 81.257L248.42 96H245.775L252.238 81.533H243.728V79.302H254.814V81.257ZM266.074 83.12C265.905 82.4147 265.598 81.8857 265.154 81.533C264.709 81.1803 264.088 81.004 263.291 81.004C262.079 81.004 261.175 81.4717 260.577 82.407C259.979 83.327 259.664 84.8603 259.634 87.007C260.032 86.3323 260.615 85.811 261.382 85.443C262.148 85.075 262.976 84.891 263.866 84.891C264.878 84.891 265.767 85.1133 266.534 85.558C267.316 85.9873 267.921 86.616 268.351 87.444C268.795 88.272 269.018 89.261 269.018 90.411C269.018 91.4843 268.803 92.4427 268.374 93.286C267.96 94.1293 267.339 94.7963 266.511 95.287C265.683 95.7623 264.686 96 263.521 96C261.941 96 260.699 95.655 259.795 94.965C258.905 94.2597 258.277 93.2707 257.909 91.998C257.556 90.7253 257.38 89.1383 257.38 87.237C257.38 81.625 259.358 78.819 263.314 78.819C264.847 78.819 266.051 79.233 266.925 80.061C267.814 80.889 268.335 81.9087 268.489 83.12H266.074ZM263.291 87.099C262.355 87.099 261.558 87.3827 260.899 87.95C260.255 88.502 259.933 89.307 259.933 90.365C259.933 91.423 260.232 92.2663 260.83 92.895C261.443 93.5083 262.294 93.815 263.383 93.815C264.349 93.815 265.108 93.516 265.66 92.918C266.227 92.32 266.511 91.5227 266.511 90.526C266.511 89.4833 266.235 88.6553 265.683 88.042C265.146 87.4133 264.349 87.099 263.291 87.099Z" fill="#464646"/>
<path d="M31.58 140.528V146.504C31.58 147.32 31.352 147.956 30.896 148.412C30.448 148.86 29.824 149.084 29.024 149.084C28.16 149.084 27.476 148.836 26.972 148.34C26.468 147.844 26.216 147.136 26.216 146.216H27.884C27.884 146.648 27.972 146.98 28.148 147.212C28.332 147.444 28.6 147.56 28.952 147.56C29.272 147.56 29.508 147.468 29.66 147.284C29.812 147.092 29.888 146.832 29.888 146.504V140.528H31.58ZM37.033 140.408C37.825 140.408 38.541 140.592 39.181 140.96C39.829 141.328 40.337 141.844 40.705 142.508C41.081 143.164 41.269 143.908 41.269 144.74C41.269 145.572 41.081 146.32 40.705 146.984C40.337 147.648 39.829 148.164 39.181 148.532C38.541 148.9 37.825 149.084 37.033 149.084C36.241 149.084 35.521 148.9 34.873 148.532C34.233 148.164 33.725 147.648 33.349 146.984C32.981 146.32 32.797 145.572 32.797 144.74C32.797 143.908 32.981 143.164 33.349 142.508C33.725 141.844 34.233 141.328 34.873 140.96C35.521 140.592 36.241 140.408 37.033 140.408ZM37.033 141.968C36.537 141.968 36.101 142.08 35.725 142.304C35.349 142.528 35.053 142.852 34.837 143.276C34.629 143.692 34.525 144.18 34.525 144.74C34.525 145.3 34.629 145.792 34.837 146.216C35.053 146.632 35.349 146.952 35.725 147.176C36.101 147.4 36.537 147.512 37.033 147.512C37.529 147.512 37.965 147.4 38.341 147.176C38.717 146.952 39.009 146.632 39.217 146.216C39.433 145.792 39.541 145.3 39.541 144.74C39.541 144.18 39.433 143.692 39.217 143.276C39.009 142.852 38.717 142.528 38.341 142.304C37.965 142.08 37.529 141.968 37.033 141.968ZM49.5614 140.528V149H47.8574V145.316H44.2334V149H42.5414V140.528H44.2334V143.96H47.8574V140.528H49.5614ZM58.2721 149H56.5801L52.7881 143.24V149H51.0961V140.528H52.7881L56.5801 146.336V140.528H58.2721V149ZM73.5284 140.528L71.4524 149H69.3644L67.7804 142.856L66.1844 149H64.1084L62.0324 140.528H63.8684L65.1644 147.092L66.8444 140.528H68.7044L70.3964 147.092L71.6924 140.528H73.5284ZM76.378 140.528V149H74.686V140.528H76.378ZM79.6006 147.704H82.4446V149H77.9086V140.528H79.6006V147.704ZM85.1436 147.704H87.9876V149H83.4516V140.528H85.1436V147.704ZM90.6866 140.528V149H88.9946V140.528H90.6866ZM97.3772 147.296H93.9812L93.3812 149H91.5932L94.7132 140.624H96.6452L99.7532 149H97.9652L97.3772 147.296ZM96.9212 146.012L95.6732 142.436L94.4252 146.012H96.9212ZM109.798 140.624V149H108.118V143.156L105.97 149H104.506L102.358 143.18V149H100.666V140.624H102.718L105.262 146.924L107.758 140.624H109.798ZM117.151 146.684C117.151 147.116 117.043 147.516 116.827 147.884C116.611 148.244 116.291 148.536 115.867 148.76C115.443 148.976 114.927 149.084 114.319 149.084C113.719 149.084 113.183 148.984 112.711 148.784C112.239 148.576 111.859 148.28 111.571 147.896C111.291 147.512 111.131 147.064 111.091 146.552H112.891C112.931 146.896 113.067 147.184 113.299 147.416C113.539 147.64 113.855 147.752 114.247 147.752C114.599 147.752 114.867 147.66 115.051 147.476C115.243 147.284 115.339 147.04 115.339 146.744C115.339 146.48 115.263 146.264 115.111 146.096C114.959 145.92 114.767 145.78 114.535 145.676C114.303 145.572 113.983 145.452 113.575 145.316C113.047 145.14 112.615 144.968 112.279 144.8C111.943 144.624 111.655 144.372 111.415 144.044C111.183 143.716 111.067 143.288 111.067 142.76C111.067 142.032 111.327 141.46 111.847 141.044C112.375 140.62 113.071 140.408 113.935 140.408C114.831 140.408 115.543 140.624 116.071 141.056C116.607 141.488 116.911 142.064 116.983 142.784H115.159C115.111 142.48 114.983 142.232 114.775 142.04C114.567 141.84 114.283 141.74 113.923 141.74C113.611 141.74 113.359 141.824 113.167 141.992C112.975 142.152 112.879 142.388 112.879 142.7C112.879 142.948 112.951 143.156 113.095 143.324C113.247 143.484 113.435 143.616 113.659 143.72C113.891 143.824 114.203 143.94 114.595 144.068C115.139 144.26 115.579 144.44 115.915 144.608C116.259 144.776 116.551 145.028 116.791 145.364C117.031 145.7 117.151 146.14 117.151 146.684Z" fill="#393939"/>
<path d="M158.624 142.704C158.624 144.056 158.864 145.116 159.344 145.884C159.824 146.644 160.624 147.024 161.744 147.024C162.864 147.024 163.664 146.64 164.144 145.872C164.624 145.104 164.864 144.048 164.864 142.704C164.864 141.368 164.624 140.32 164.144 139.56C163.664 138.792 162.864 138.408 161.744 138.408C160.624 138.408 159.824 138.788 159.344 139.548C158.864 140.308 158.624 141.36 158.624 142.704ZM163.496 142.704C163.496 143.68 163.376 144.428 163.136 144.948C162.896 145.468 162.432 145.728 161.744 145.728C161.048 145.728 160.58 145.468 160.34 144.948C160.1 144.428 159.98 143.68 159.98 142.704C159.98 141.736 160.1 140.996 160.34 140.484C160.58 139.972 161.048 139.716 161.744 139.716C162.432 139.716 162.896 139.976 163.136 140.496C163.376 141.008 163.496 141.744 163.496 142.704ZM165.633 139.812V138.528H168.345V147H166.905V139.812H165.633ZM173.74 135.672L170.476 149.112H169.144L172.408 135.672H173.74ZM174.171 145.932C175.467 145.044 176.503 144.176 177.279 143.328C178.063 142.472 178.455 141.68 178.455 140.952C178.455 140.52 178.347 140.176 178.131 139.92C177.923 139.664 177.583 139.536 177.111 139.536C176.623 139.536 176.255 139.696 176.007 140.016C175.759 140.328 175.619 140.776 175.587 141.36H174.255C174.311 140.392 174.607 139.652 175.143 139.14C175.687 138.628 176.379 138.372 177.219 138.372C178.043 138.372 178.687 138.592 179.151 139.032C179.623 139.464 179.859 140.064 179.859 140.832C179.859 141.448 179.667 142.072 179.283 142.704C178.907 143.336 178.427 143.92 177.843 144.456C177.259 144.984 176.655 145.44 176.031 145.824H180.051V146.94H174.171V145.932ZM180.92 145.176V144.024L185.132 138.456H186.596V143.976H187.784V145.176H186.596V147H185.216V145.176H180.92ZM185.312 140.088L182.336 143.976H185.312V140.088Z" fill="#393939"/>
<path d="M26.351 126.76C26.351 126.376 26.417 125.995 26.549 125.617C26.687 125.233 26.885 124.891 27.143 124.591C27.407 124.285 27.728 124.039 28.106 123.853C28.484 123.667 28.913 123.574 29.393 123.574C29.963 123.574 30.452 123.703 30.86 123.961C31.268 124.219 31.571 124.555 31.769 124.969L31.13 125.383C31.034 125.179 30.917 125.008 30.779 124.87C30.647 124.732 30.5 124.621 30.338 124.537C30.182 124.453 30.02 124.393 29.852 124.357C29.684 124.321 29.519 124.303 29.357 124.303C29.003 124.303 28.688 124.378 28.412 124.528C28.142 124.672 27.914 124.864 27.728 125.104C27.542 125.338 27.401 125.605 27.305 125.905C27.215 126.199 27.17 126.496 27.17 126.796C27.17 127.132 27.224 127.453 27.332 127.759C27.446 128.059 27.602 128.326 27.8 128.56C27.998 128.794 28.232 128.98 28.502 129.118C28.772 129.256 29.066 129.325 29.384 129.325C29.552 129.325 29.723 129.304 29.897 129.262C30.077 129.22 30.248 129.154 30.41 129.064C30.572 128.968 30.722 128.851 30.86 128.713C31.004 128.569 31.121 128.398 31.211 128.2L31.886 128.569C31.784 128.809 31.64 129.022 31.454 129.208C31.274 129.388 31.067 129.541 30.833 129.667C30.605 129.793 30.362 129.889 30.104 129.955C29.846 130.021 29.594 130.054 29.348 130.054C28.91 130.054 28.508 129.958 28.142 129.766C27.776 129.574 27.458 129.325 27.188 129.019C26.924 128.707 26.717 128.356 26.567 127.966C26.423 127.57 26.351 127.168 26.351 126.76ZM34.7559 123.61H35.4399L38.0499 130H37.1859L36.4299 128.128H33.7479L33.0009 130H32.1369L34.7559 123.61ZM36.2499 127.498L35.0979 124.546L33.9099 127.498H36.2499ZM38.9027 130V123.61H41.6387C41.9207 123.61 42.1787 123.67 42.4127 123.79C42.6527 123.904 42.8567 124.06 43.0247 124.258C43.1987 124.45 43.3337 124.669 43.4297 124.915C43.5257 125.155 43.5737 125.401 43.5737 125.653C43.5737 125.875 43.5407 126.091 43.4747 126.301C43.4147 126.505 43.3247 126.691 43.2047 126.859C43.0907 127.027 42.9497 127.171 42.7817 127.291C42.6197 127.411 42.4367 127.498 42.2327 127.552L43.7807 130H42.8627L41.4047 127.705H39.7127V130H38.9027ZM39.7127 126.985H41.6477C41.8157 126.985 41.9657 126.949 42.0977 126.877C42.2357 126.805 42.3527 126.709 42.4487 126.589C42.5447 126.463 42.6197 126.319 42.6737 126.157C42.7277 125.995 42.7547 125.827 42.7547 125.653C42.7547 125.473 42.7217 125.305 42.6557 125.149C42.5957 124.987 42.5117 124.846 42.4037 124.726C42.3017 124.6 42.1787 124.504 42.0347 124.438C41.8967 124.366 41.7497 124.33 41.5937 124.33H39.7127V126.985ZM44.8177 130V123.61H47.0317C47.5417 123.61 47.9887 123.694 48.3727 123.862C48.7627 124.03 49.0867 124.258 49.3447 124.546C49.6027 124.834 49.7947 125.173 49.9207 125.563C50.0527 125.947 50.1187 126.358 50.1187 126.796C50.1187 127.282 50.0467 127.723 49.9027 128.119C49.7587 128.509 49.5517 128.845 49.2817 129.127C49.0117 129.403 48.6847 129.619 48.3007 129.775C47.9227 129.925 47.4997 130 47.0317 130H44.8177ZM49.2997 126.796C49.2997 126.436 49.2487 126.106 49.1467 125.806C49.0507 125.5 48.9037 125.239 48.7057 125.023C48.5137 124.807 48.2767 124.639 47.9947 124.519C47.7127 124.393 47.3917 124.33 47.0317 124.33H45.6277V129.28H47.0317C47.3977 129.28 47.7217 129.217 48.0037 129.091C48.2917 128.965 48.5287 128.791 48.7147 128.569C48.9067 128.347 49.0507 128.086 49.1467 127.786C49.2487 127.48 49.2997 127.15 49.2997 126.796ZM58.6755 123.61V130H57.8655V127.093H54.3465V130H53.5365V123.61H54.3465V126.373H57.8655V123.61H58.6755ZM62.7994 130.045C62.3494 130.045 61.9384 129.955 61.5664 129.775C61.2004 129.589 60.8854 129.346 60.6214 129.046C60.3574 128.74 60.1534 128.392 60.0094 128.002C59.8654 127.612 59.7934 127.213 59.7934 126.805C59.7934 126.379 59.8684 125.971 60.0184 125.581C60.1744 125.191 60.3874 124.846 60.6574 124.546C60.9274 124.246 61.2454 124.009 61.6114 123.835C61.9834 123.655 62.3854 123.565 62.8174 123.565C63.2674 123.565 63.6754 123.661 64.0414 123.853C64.4074 124.039 64.7224 124.285 64.9864 124.591C65.2504 124.897 65.4544 125.245 65.5984 125.635C65.7424 126.019 65.8144 126.412 65.8144 126.814C65.8144 127.24 65.7364 127.648 65.5804 128.038C65.4304 128.428 65.2204 128.773 64.9504 129.073C64.6864 129.367 64.3684 129.604 63.9964 129.784C63.6304 129.958 63.2314 130.045 62.7994 130.045ZM60.6124 126.805C60.6124 127.129 60.6634 127.444 60.7654 127.75C60.8734 128.05 61.0234 128.317 61.2154 128.551C61.4074 128.785 61.6384 128.971 61.9084 129.109C62.1784 129.247 62.4784 129.316 62.8084 129.316C63.1504 129.316 63.4564 129.244 63.7264 129.1C63.9964 128.95 64.2244 128.758 64.4104 128.524C64.6024 128.284 64.7464 128.014 64.8424 127.714C64.9444 127.414 64.9954 127.111 64.9954 126.805C64.9954 126.481 64.9414 126.169 64.8334 125.869C64.7314 125.563 64.5814 125.296 64.3834 125.068C64.1914 124.834 63.9604 124.648 63.6904 124.51C63.4264 124.372 63.1324 124.303 62.8084 124.303C62.4664 124.303 62.1604 124.375 61.8904 124.519C61.6204 124.663 61.3894 124.852 61.1974 125.086C61.0114 125.32 60.8674 125.587 60.7654 125.887C60.6634 126.187 60.6124 126.493 60.6124 126.805ZM66.9398 130V123.61H67.7498V129.28H71.3138V130H66.9398ZM72.1957 130V123.61H74.4097C74.9197 123.61 75.3667 123.694 75.7507 123.862C76.1407 124.03 76.4647 124.258 76.7227 124.546C76.9807 124.834 77.1727 125.173 77.2987 125.563C77.4307 125.947 77.4967 126.358 77.4967 126.796C77.4967 127.282 77.4247 127.723 77.2807 128.119C77.1367 128.509 76.9297 128.845 76.6597 129.127C76.3897 129.403 76.0627 129.619 75.6787 129.775C75.3007 129.925 74.8777 130 74.4097 130H72.1957ZM76.6777 126.796C76.6777 126.436 76.6267 126.106 76.5247 125.806C76.4287 125.5 76.2817 125.239 76.0837 125.023C75.8917 124.807 75.6547 124.639 75.3727 124.519C75.0907 124.393 74.7697 124.33 74.4097 124.33H73.0057V129.28H74.4097C74.7757 129.28 75.0997 129.217 75.3817 129.091C75.6697 128.965 75.9067 128.791 76.0927 128.569C76.2847 128.347 76.4287 128.086 76.5247 127.786C76.6267 127.48 76.6777 127.15 76.6777 126.796ZM82.976 129.28V130H78.638V123.61H82.895V124.33H79.448V126.4H82.445V127.075H79.448V129.28H82.976ZM84.0873 130V123.61H86.8233C87.1053 123.61 87.3633 123.67 87.5973 123.79C87.8373 123.904 88.0413 124.06 88.2093 124.258C88.3833 124.45 88.5183 124.669 88.6143 124.915C88.7103 125.155 88.7583 125.401 88.7583 125.653C88.7583 125.875 88.7253 126.091 88.6593 126.301C88.5993 126.505 88.5093 126.691 88.3893 126.859C88.2753 127.027 88.1343 127.171 87.9663 127.291C87.8043 127.411 87.6213 127.498 87.4173 127.552L88.9653 130H88.0473L86.5893 127.705H84.8973V130H84.0873ZM84.8973 126.985H86.8323C87.0003 126.985 87.1503 126.949 87.2823 126.877C87.4203 126.805 87.5373 126.709 87.6333 126.589C87.7293 126.463 87.8043 126.319 87.8583 126.157C87.9123 125.995 87.9393 125.827 87.9393 125.653C87.9393 125.473 87.9063 125.305 87.8403 125.149C87.7803 124.987 87.6963 124.846 87.5883 124.726C87.4863 124.6 87.3633 124.504 87.2193 124.438C87.0813 124.366 86.9343 124.33 86.7783 124.33H84.8973V126.985Z" fill="#9A9A9A"/>
<path d="M158.945 123.61L161.06 128.983L163.166 123.61H164.021L161.411 130H160.709L158.09 123.61H158.945ZM166.308 123.61H166.992L169.602 130H168.738L167.982 128.128H165.3L164.553 130H163.689L166.308 123.61ZM167.802 127.498L166.65 124.546L165.462 127.498H167.802ZM170.454 130V123.61H171.264V129.28H174.828V130H170.454ZM175.71 130V123.61H176.52V130H175.71ZM178.048 130V123.61H180.262C180.772 123.61 181.219 123.694 181.603 123.862C181.993 124.03 182.317 124.258 182.575 124.546C182.833 124.834 183.025 125.173 183.151 125.563C183.283 125.947 183.349 126.358 183.349 126.796C183.349 127.282 183.277 127.723 183.133 128.119C182.989 128.509 182.782 128.845 182.512 129.127C182.242 129.403 181.915 129.619 181.531 129.775C181.153 129.925 180.73 130 180.262 130H178.048ZM182.53 126.796C182.53 126.436 182.479 126.106 182.377 125.806C182.281 125.5 182.134 125.239 181.936 125.023C181.744 124.807 181.507 124.639 181.225 124.519C180.943 124.393 180.622 124.33 180.262 124.33H178.858V129.28H180.262C180.628 129.28 180.952 129.217 181.234 129.091C181.522 128.965 181.759 128.791 181.945 128.569C182.137 128.347 182.281 128.086 182.377 127.786C182.479 127.48 182.53 127.15 182.53 126.796ZM191.102 124.33H188.897V130H188.087V124.33H185.882V123.61H191.102V124.33ZM192.023 130V123.61H192.833V130H192.023ZM194.361 130V123.61H195.171V129.28H198.735V130H194.361ZM199.617 130V123.61H200.427V129.28H203.991V130H199.617Z" fill="#9A9A9A"/>
<path d="M281.251 20.8192C279.741 20.2666 278.144 19.9893 276.536 20.0003C271.337 20.0003 267.665 22.63 267.639 26.4048C267.606 29.178 270.248 30.7408 272.247 31.6673C274.297 32.62 274.983 33.2203 274.976 34.0719C274.963 35.3671 273.339 35.9544 271.828 35.9544C269.751 35.9544 268.617 35.664 266.872 34.9365L266.225 34.633L265.488 38.9788C266.752 39.5073 269.03 39.9608 271.382 40C276.91 40 280.523 37.3867 280.566 33.3704C280.611 31.1551 279.181 29.4814 276.172 28.0981C274.343 27.2009 273.209 26.6005 273.209 25.6903C273.209 24.8844 274.18 24.0231 276.211 24.0231C277.563 23.9903 278.906 24.2449 280.153 24.7702L280.64 24.9888L281.378 20.7899L281.251 20.8192ZM294.743 20.3527H290.681C289.417 20.3527 288.465 20.7018 287.913 21.9611L280.101 39.7292H285.628L286.733 36.8157L293.479 36.8222C293.638 37.5041 294.126 39.7292 294.126 39.7292H299L294.743 20.3527ZM260.162 20.1895H265.429L262.134 39.5759H256.873L260.162 20.183V20.1895ZM246.79 30.8745L247.336 33.5662L252.483 20.3527H258.063L249.773 39.7031H244.207L239.657 23.3184C239.584 23.0482 239.411 22.8162 239.173 22.6691C237.534 21.8187 235.796 21.1733 234 20.7474L234.071 20.3396H242.549C243.7 20.3853 244.626 20.7474 244.935 21.9807L246.787 30.8843V30.8745H246.79ZM288.244 32.8517L290.343 27.4292C290.317 27.488 290.775 26.3102 291.042 25.5826L291.403 27.2563L292.621 32.8484H288.241V32.8517H288.244Z" fill="#11376F"/>
<defs>
<linearGradient id="paint0_linear" x1="159.5" y1="0" x2="159.5" y2="176" gradientUnits="userSpaceOnUse">
<stop stop-color="#C58E82"/>
<stop offset="1" stop-color="#96504C"/>
</linearGradient>
<linearGradient id="paint1_linear" x1="159.5" y1="0" x2="159.5" y2="176" gradientUnits="userSpaceOnUse">
<stop stop-color="#FAF7F6"/>
<stop offset="1" stop-color="#E6E5E5"/>
</linearGradient>
</defs>
</svg>
